<svg width="315" height="319" viewBox="0 0 315 319" fill="none" xmlns="http://www.w3.org/2000/svg">
<path d="M307.457 57.6068C305.132 57.6068 247.129 57.2049 230.713 57.2049C229.566 57.2049 231.02 55.2175 231.649 55.0787C233.688 54.7413 235.745 54.5169 237.81 54.4065C239.822 54.2165 241.793 53.7239 243.657 52.9452C245.237 52.165 246.906 51.581 248.627 51.2063C252.004 50.6729 254.964 52.5068 258.129 53.3105C259.089 53.5895 260.098 53.6634 261.089 53.5275C262.08 53.3915 263.031 53.0488 263.881 52.5214C265.343 51.6447 266.68 50.5925 268.208 49.818C271.137 48.3779 274.332 47.5574 277.593 47.4078C280.854 47.2582 284.111 47.7827 287.16 48.9486C288.615 49.5084 290.007 50.2212 291.311 51.0748C292.853 52.0904 294.191 53.3836 295.741 54.3846C299.176 56.5765 303.422 55.8459 307.172 57.1611C307.427 57.2195 307.661 57.6068 307.457 57.6068Z" fill="#EBEBEB"/>
<path d="M129.864 16.4389C126.795 16.4389 75.0474 16.7823 71.8242 16.68C71.771 16.6762 71.7203 16.6559 71.6792 16.622C71.6381 16.588 71.6087 16.542 71.595 16.4905C71.5813 16.439 71.5841 16.3845 71.6029 16.3346C71.6217 16.2847 71.6556 16.242 71.7 16.2123C73.7465 15.1967 76.0853 15.4013 78.2049 14.6853C79.3584 14.23 80.3682 13.4729 81.1285 12.4933C81.8495 11.676 82.7792 11.0699 83.8181 10.7398C84.7678 10.4545 85.7755 10.4217 86.7417 10.6448C87.7409 10.9955 88.7173 11.4079 89.6653 11.8796C92.1503 12.8148 94.5696 11.9234 96.3383 10.0822C97.8001 8.56976 99.2619 7.15961 101.228 6.32667C102.04 5.9593 102.92 5.76322 103.811 5.75065C104.703 5.73807 105.588 5.90929 106.41 6.25361C108.31 7.11577 109.611 8.8401 111.395 9.90685C113.507 11.1416 116.029 10.8494 118.36 11.222C120.692 11.5947 122.49 13.5601 124.536 14.6926C125.202 15.1216 125.973 15.3592 126.765 15.3794C127.222 15.3412 127.675 15.2778 128.125 15.1894C128.45 15.1006 128.793 15.1019 129.118 15.1933C129.442 15.2847 129.736 15.4627 129.967 15.7082C130.091 15.8324 130.069 16.4389 129.864 16.4389Z" fill="#EBEBEB"/>
<path d="M301.208 28.4538C298.964 28.4538 261.206 28.7023 258.816 28.6292C258.775 28.6294 258.736 28.616 258.703 28.5911C258.671 28.5662 258.648 28.5312 258.638 28.4917C258.628 28.4523 258.631 28.4105 258.648 28.3732C258.664 28.3359 258.692 28.3051 258.728 28.2858C260.19 27.5551 261.915 27.694 263.472 27.1679C264.303 26.8333 265.031 26.2866 265.584 25.5824C266.108 24.9804 266.789 24.5353 267.55 24.2965C268.244 24.0886 268.979 24.0659 269.684 24.2307C270.434 24.4818 271.167 24.782 271.877 25.1294C272.727 25.4284 273.647 25.4634 274.517 25.23C275.387 24.9966 276.166 24.5056 276.752 23.8215C277.725 22.667 278.93 21.7308 280.29 21.0743C280.884 20.8076 281.526 20.6655 282.177 20.6567C282.828 20.6479 283.475 20.7726 284.076 21.0231C285.457 21.6515 286.407 22.9082 287.73 23.6681C289.272 24.5741 291.121 24.3549 292.846 24.6325C294.571 24.9102 295.85 26.335 297.349 27.1606C297.835 27.4746 298.399 27.649 298.978 27.6647C299.31 27.6364 299.639 27.5901 299.965 27.5259C300.204 27.4594 300.456 27.4596 300.694 27.5266C300.933 27.5936 301.148 27.7248 301.317 27.9059C301.368 28.0081 301.354 28.4538 301.208 28.4538Z" fill="#EBEBEB"/>
<path d="M125.099 53.2811C122.855 53.2811 85.0973 53.5295 82.7072 53.4564C82.5391 53.4564 82.4441 53.2007 82.6195 53.1204C84.0813 52.3897 85.8062 52.5285 87.363 52.0025C88.1964 51.6689 88.9256 51.119 89.4753 50.4096C90.0024 49.8129 90.6821 49.3709 91.4414 49.131C92.1342 48.9207 92.87 48.8955 93.5756 49.0579C94.3255 49.309 95.0579 49.6092 95.7683 49.9566C96.6177 50.2587 97.5389 50.2954 98.4096 50.0618C99.2803 49.8282 100.059 49.3354 100.643 48.6488C101.625 47.4931 102.84 46.5592 104.21 45.9088C104.803 45.6393 105.446 45.495 106.097 45.4849C106.748 45.4749 107.395 45.5993 107.996 45.8504C109.377 46.4788 110.328 47.7428 111.651 48.5027C113.193 49.4013 115.042 49.1895 116.767 49.4598C118.492 49.7301 119.778 51.1695 121.269 51.9952C121.758 52.3058 122.32 52.4799 122.899 52.4993C123.228 52.4993 123.557 52.397 123.886 52.3532C124.124 52.2898 124.376 52.2917 124.614 52.3585C124.851 52.4253 125.067 52.5547 125.238 52.7331C125.26 52.8427 125.245 53.2811 125.099 53.2811Z" fill="#EBEBEB"/>
<path d="M66.4892 42.0719C66.4453 42.2034 6.97995 42.0719 7.72546 42.0719C8.06898 42.0719 7.20653 41.5604 7.54274 41.3997C9.4796 40.4352 11.5992 40.4133 13.7042 40.216C14.9504 40.1632 16.1744 39.8679 17.3075 39.3465C18.3351 38.6747 19.2215 37.8084 19.9167 36.7966C21.1443 35.3463 22.7212 34.2324 24.4987 33.56C26.2761 32.8876 28.1956 32.6788 30.0761 32.9534C34.3007 33.6109 37.6336 36.8331 41.8727 37.4249C44.4162 37.783 46.8209 36.7966 49.3059 36.4532C51.228 36.1874 53.1847 36.5433 54.8899 37.4688C56.1518 38.1866 57.5471 38.6392 58.9902 38.7986C60.1523 38.8789 61.3218 38.7474 62.4912 38.7401C64.389 38.7829 66.2068 39.5124 67.6074 40.7932C67.8267 40.9613 68.426 42.0719 66.4892 42.0719Z" fill="#EBEBEB"/>
<path d="M223.082 104.811C223.082 104.811 174.434 98.4329 144.343 89.6651C119.376 82.4244 89.8919 71.1797 78.6946 71.1797C54.2756 71.1797 10.042 104.79 10.042 104.79H171.189" fill="#DBDBDB"/>
<path d="M112.857 104.813C112.857 104.813 214.115 79.6641 227.22 79.6641C244.885 79.6641 304.943 104.813 304.943 104.813H112.857Z" fill="#EBEBEB"/>
<path d="M305.871 150.191C305.498 150.03 305.338 150.637 305.71 150.79C306.177 150.982 306.555 151.34 306.774 151.795C306.992 152.249 307.035 152.768 306.894 153.252C306.873 153.332 306.884 153.416 306.925 153.488C306.966 153.559 307.034 153.611 307.114 153.632C307.193 153.654 307.278 153.642 307.349 153.601C307.42 153.56 307.472 153.493 307.494 153.413C307.676 152.77 307.611 152.083 307.31 151.486C307.01 150.889 306.496 150.427 305.871 150.191Z" fill="#EBEBEB"/>
<path d="M308.605 149.584C308.214 150.448 308.09 151.41 308.247 152.346C308.305 152.747 308.912 152.579 308.846 152.185C308.728 151.41 308.832 150.617 309.146 149.898C309.307 149.584 308.795 149.233 308.605 149.584Z" fill="#EBEBEB"/>
<path d="M291.984 110.329C291.611 110.176 291.443 110.782 291.816 110.936C292.282 111.125 292.662 111.482 292.881 111.935C293.1 112.389 293.142 112.908 293 113.391C292.99 113.466 293.007 113.542 293.049 113.605C293.09 113.669 293.153 113.715 293.226 113.735C293.299 113.756 293.377 113.749 293.446 113.717C293.514 113.684 293.569 113.628 293.599 113.559C293.784 112.916 293.721 112.227 293.421 111.629C293.122 111.031 292.609 110.567 291.984 110.329Z" fill="#EBEBEB"/>
<path d="M294.725 109.739C294.329 110.604 294.201 111.569 294.36 112.508C294.426 112.903 295.025 112.734 294.966 112.34C294.841 111.565 294.945 110.77 295.266 110.053C295.427 109.688 294.908 109.395 294.725 109.739Z" fill="#EBEBEB"/>
<path d="M54.0347 156.774C53.6765 156.584 53.3623 157.125 53.7131 157.315C54.0564 157.49 54.3391 157.764 54.5242 158.101C54.7094 158.439 54.7884 158.825 54.751 159.208C54.751 159.61 55.343 159.61 55.3795 159.208C55.4177 158.715 55.3107 158.222 55.0717 157.79C54.8326 157.357 54.4721 157.004 54.0347 156.774Z" fill="#EBEBEB"/>
<path d="M4.47321 123.766C4.12238 123.576 3.80079 124.117 4.15892 124.307C4.50156 124.483 4.78366 124.757 4.9687 125.094C5.15374 125.432 5.2332 125.817 5.19679 126.2C5.19679 126.602 5.78881 126.602 5.81805 126.2C5.85717 125.707 5.75055 125.214 5.51144 124.781C5.27233 124.348 4.91129 123.996 4.47321 123.766Z" fill="#EBEBEB"/>
<path d="M231.905 137.162C231.859 137.098 231.792 137.054 231.715 137.038C231.639 137.022 231.559 137.035 231.492 137.074C231.424 137.113 231.374 137.176 231.35 137.25C231.327 137.324 231.331 137.405 231.364 137.476C231.804 138.298 232.006 139.227 231.949 140.157C231.949 140.559 232.555 140.559 232.577 140.157C232.635 139.116 232.402 138.079 231.905 137.162Z" fill="#EBEBEB"/>
<path d="M233.352 137.568C233.011 138.177 232.873 138.878 232.957 139.571C233.001 139.965 233.63 139.965 233.578 139.571C233.501 138.989 233.611 138.397 233.893 137.882C233.925 137.811 233.93 137.731 233.906 137.656C233.883 137.582 233.832 137.519 233.765 137.48C233.697 137.441 233.618 137.428 233.541 137.444C233.465 137.461 233.397 137.505 233.352 137.568Z" fill="#EBEBEB"/>
<path d="M33.8253 141.849C33.6353 141.498 33.0945 141.849 33.2845 142.171C33.7304 142.988 33.9357 143.915 33.8765 144.845C33.8765 145.247 34.4832 145.247 34.5051 144.845C34.564 143.802 34.3284 142.764 33.8253 141.849Z" fill="#EBEBEB"/>
<path d="M35.28 142.271C34.9394 142.88 34.8012 143.581 34.8853 144.274C34.9292 144.668 35.5578 144.668 35.5066 144.274C35.4257 143.692 35.536 143.099 35.8209 142.585C35.8533 142.514 35.8581 142.434 35.8345 142.36C35.8108 142.285 35.7604 142.222 35.6929 142.183C35.6254 142.144 35.5458 142.131 35.4695 142.148C35.3932 142.164 35.3257 142.208 35.28 142.271Z" fill="#EBEBEB"/>
<path d="M70.7354 117.522C70.3773 117.339 70.063 117.88 70.4211 118.062C70.7623 118.241 71.0426 118.517 71.2262 118.855C71.4098 119.194 71.4883 119.579 71.4517 119.963C71.4517 120.365 72.051 120.365 72.0803 119.963C72.118 119.469 72.0108 118.975 71.772 118.542C71.5331 118.108 71.1728 117.753 70.7354 117.522Z" fill="#EBEBEB"/>
<path d="M72.5993 116.544C72.4092 116.193 71.8684 116.507 72.0584 116.865C72.501 117.684 72.7061 118.61 72.6504 119.539C72.6504 119.941 73.2571 119.941 73.279 119.539C73.3298 118.497 73.0948 117.462 72.5993 116.544Z" fill="#EBEBEB"/>
<path d="M74.0538 116.958C73.7083 117.565 73.5673 118.267 73.6518 118.96C73.703 119.355 74.3316 119.362 74.2804 118.96C74.1989 118.381 74.3093 117.79 74.5947 117.279C74.7847 116.921 74.2439 116.607 74.0538 116.958Z" fill="#EBEBEB"/>
<path d="M85.7332 134.966C85.6977 134.945 85.6584 134.931 85.6175 134.925C85.5766 134.919 85.535 134.921 85.4949 134.932C85.414 134.952 85.3447 135.004 85.302 135.076C85.2594 135.147 85.247 135.233 85.2675 135.314C85.2881 135.395 85.3399 135.464 85.4116 135.507C85.8246 135.745 86.1621 136.095 86.3857 136.516C86.6093 136.938 86.7099 137.413 86.6761 137.889C86.6761 138.291 87.2754 138.291 87.2973 137.889C87.3333 137.304 87.2061 136.722 86.9299 136.206C86.6537 135.689 86.2394 135.26 85.7332 134.966Z" fill="#EBEBEB"/>
<path d="M88.0213 136.475C87.9555 136.899 87.8824 137.316 87.8093 137.739C87.7362 138.163 88.3429 138.302 88.4087 137.9L88.6279 136.643C88.6937 136.248 88.0651 136.08 88.0213 136.475Z" fill="#EBEBEB"/>
<path d="M10.4594 173.421C10.1452 173.165 9.72856 173.604 10.0136 173.867C10.3758 174.159 10.663 174.534 10.8511 174.96C11.0393 175.385 11.123 175.85 11.0953 176.314C11.0953 176.716 11.702 176.716 11.7239 176.314C11.7547 175.767 11.6562 175.22 11.4366 174.717C11.217 174.215 10.8823 173.771 10.4594 173.421Z" fill="#EBEBEB"/>
<path d="M208.443 112.616C208.75 112.36 209.174 112.806 208.882 113.061C208.519 113.354 208.232 113.728 208.044 114.154C207.856 114.58 207.772 115.044 207.8 115.509C207.8 115.918 207.193 115.911 207.171 115.509C207.144 114.961 207.245 114.415 207.466 113.912C207.687 113.41 208.021 112.966 208.443 112.616Z" fill="#EBEBEB"/>
<path d="M310.447 118.022C310.761 117.766 311.177 118.212 310.892 118.468C310.53 118.76 310.243 119.135 310.055 119.56C309.867 119.986 309.783 120.451 309.811 120.915C309.811 121.324 309.204 121.317 309.182 120.915C309.152 120.368 309.251 119.821 309.47 119.318C309.69 118.816 310.024 118.372 310.447 118.022Z" fill="#EBEBEB"/>
<path d="M262.536 162.517C262.116 162.948 261.806 163.474 261.633 164.05C261.46 164.627 261.429 165.236 261.542 165.827C261.616 166.222 262.222 166.061 262.149 165.666C262.06 165.182 262.089 164.683 262.234 164.212C262.379 163.742 262.636 163.313 262.982 162.963C263.267 162.671 262.821 162.225 262.536 162.517Z" fill="#EBEBEB"/>
<path d="M260.256 162.861V164.966C260.256 165.049 260.289 165.129 260.348 165.188C260.407 165.247 260.487 165.28 260.57 165.28C260.653 165.28 260.733 165.247 260.792 165.188C260.851 165.129 260.884 165.049 260.884 164.966V162.861C260.884 162.778 260.851 162.698 260.792 162.639C260.733 162.58 260.653 162.547 260.57 162.547C260.487 162.547 260.407 162.58 260.348 162.639C260.289 162.698 260.256 162.778 260.256 162.861Z" fill="#EBEBEB"/>
<path d="M263.611 163.523C263.326 163.703 263.093 163.955 262.938 164.255C262.783 164.554 262.71 164.889 262.727 165.226C262.727 165.621 263.37 165.628 263.348 165.226C263.332 164.999 263.378 164.771 263.479 164.567C263.581 164.363 263.735 164.189 263.925 164.064C264.261 163.837 263.947 163.297 263.611 163.523Z" fill="#EBEBEB"/>
<path d="M0 104.951L39.3731 104.776L78.7463 104.71L157.5 104.586L236.253 104.71L275.627 104.776L315 104.951L275.627 105.134L236.253 105.2L157.5 105.317L78.7463 105.2L39.3731 105.134L0 104.951Z" fill="#263238"/>
<path d="M157.697 108.622H156.616L156.762 105.75H157.544L157.697 108.622Z" fill="#DBDBDB"/>
<path d="M157.887 112.188H156.447L156.542 110.148H157.777L157.887 112.188Z" fill="#DBDBDB"/>
<path d="M158.106 116.211H156.243L156.36 113.719H157.975L158.106 116.211Z" fill="#DBDBDB"/>
<path d="M158.326 120.416H156.023L156.162 117.727H158.18L158.326 120.416Z" fill="#DBDBDB"/>
<path d="M158.575 125.131H155.79L155.951 121.945H158.407L158.575 125.131Z" fill="#DBDBDB"/>
<path d="M158.859 130.397H155.534L155.716 126.648H158.655L158.859 130.397Z" fill="#DBDBDB"/>
<path d="M159.21 137.051H155.198L155.461 131.914H158.933L159.21 137.051Z" fill="#DBDBDB"/>
<path d="M159.619 144.788H154.817L155.124 138.57H159.29L159.619 144.788Z" fill="#DBDBDB"/>
<path d="M160.109 154.062H154.357L154.664 147.844H159.78L160.109 154.062Z" fill="#DBDBDB"/>
<path d="M160.964 170.094H153.553L154.145 158.141H160.329L160.964 170.094Z" fill="#DBDBDB"/>
<path d="M162.324 195.754H152.274L153.261 175.961H161.271L162.324 195.754Z" fill="#DBDBDB"/>
<path d="M164.568 237.936H150.176L151.908 203.055H162.711L164.568 237.936Z" fill="#DBDBDB"/>
<path d="M168.865 319.004H146.135L149.723 246.977H165.043L168.865 319.004Z" fill="#DBDBDB"/>
<path d="M172.827 104.539L190.705 117.15L208.539 129.827L244.126 155.275L279.625 180.863L297.335 193.7L315 206.603L297.13 193.992L279.296 181.316L243.702 155.867L208.21 130.28L190.5 117.442L172.827 104.539Z" fill="#263238"/>
<path d="M142.173 104.539L124.5 117.442L106.791 130.28L71.2985 155.867L35.7041 181.316L17.8703 193.992L0 206.603L17.6657 193.7L35.3752 180.863L70.8673 155.275L106.462 129.827L124.295 117.15L142.173 104.539Z" fill="#263238"/>
<path d="M8.53636 100.14C8.88719 100.483 12.9583 100.644 14.442 100.644C15.9257 100.644 19.9967 100.483 20.3476 100.14C20.6984 99.7966 15.7649 72.7188 14.442 72.7188C13.1191 72.7188 8.18554 99.7893 8.53636 100.14Z" fill="#455A64"/>
<path d="M8.45646 93.2427C9.46509 93.6226 13.1926 95.1424 13.9966 95.5807V95.0766C13.0976 94.5432 12.1986 94.0245 11.2923 93.4984C10.2882 92.9726 9.31234 92.3946 8.36875 91.7668C8.3249 91.7668 8.36875 91.6426 8.4126 91.6718C9.39333 92.1334 10.3431 92.6581 11.2558 93.2427C12.1767 93.7834 13.083 94.3313 13.9893 94.8939C13.9893 93.5934 13.9893 92.3001 13.9893 90.9996C12.5187 90.39 11.0967 89.6694 9.73552 88.8442C9.69167 88.8442 9.73552 88.7273 9.77937 88.7492C11.2321 89.3359 12.6393 90.0294 13.9893 90.8242C13.9893 90.152 13.9893 89.4798 13.9893 88.8003C13.9893 85.3297 14.0332 81.8519 14.1209 78.3813C13.2365 77.9356 12.3302 77.541 11.4458 77.088C11.4365 77.0799 11.4299 77.069 11.4272 77.057C11.4244 77.0449 11.4256 77.0323 11.4304 77.0209C11.4353 77.0095 11.4437 77 11.4543 76.9937C11.465 76.9874 11.4773 76.9846 11.4897 76.9857C12.3813 77.3364 13.2511 77.7529 14.1282 78.1402C14.1793 76.3428 14.2451 74.5527 14.3548 72.7626C14.3548 72.751 14.3594 72.7398 14.3676 72.7316C14.3758 72.7234 14.387 72.7188 14.3986 72.7188C14.4102 72.7188 14.4214 72.7234 14.4296 72.7316C14.4378 72.7398 14.4425 72.751 14.4425 72.7626C14.5667 76.087 14.5594 79.4188 14.5156 82.7506C15.4365 82.0199 16.4086 81.3769 17.3441 80.6682C17.3806 80.6682 17.4099 80.6682 17.3806 80.7267C16.4013 81.4573 15.4949 82.2903 14.5156 83.0282C14.5156 83.2182 14.5156 83.4008 14.5156 83.5908C15.5096 83.1378 16.5182 82.714 17.5195 82.2829C17.5999 82.2829 17.6657 82.3633 17.5853 82.3998C16.562 82.8967 15.5461 83.3935 14.5082 83.8611C14.5082 85.5124 14.4571 87.1637 14.4352 88.8076C14.3962 91.6913 14.3426 94.5725 14.2744 97.4512C16.1503 96.5014 18.0385 95.5783 19.9388 94.6821C20.0119 94.6821 20.0776 94.7478 20.0045 94.7916C18.1464 95.8513 16.2337 96.8122 14.2744 97.6704C14.2232 100.067 14.172 102.456 14.1428 104.853C14.1428 104.992 13.9089 104.992 13.9162 104.853C13.9162 101.799 13.9162 98.7445 13.9601 95.6904C12.0664 95.0282 10.2097 94.2647 8.39799 93.4034C8.29566 93.3596 8.39799 93.1988 8.45646 93.2427Z" fill="#37474F"/>
<path d="M282.76 100.247C283.103 100.59 287.087 100.737 288.534 100.737C289.981 100.737 293.957 100.59 294.301 100.247C294.644 99.9036 289.82 73.4688 288.534 73.4688C287.248 73.4688 282.424 99.8963 282.76 100.247Z" fill="#455A64"/>
<path d="M282.68 93.5066C283.666 93.8792 287.306 95.3624 288.096 95.7935V95.2967L285.457 93.755C284.479 93.2451 283.53 92.6816 282.614 92.0672C282.57 92.0672 282.614 91.9503 282.65 91.9722C283.61 92.4244 284.54 92.9369 285.435 93.5066C286.327 94.0327 287.211 94.5733 288.096 95.1213C288.096 93.85 288.096 92.586 288.096 91.322C286.661 90.7269 285.276 90.0209 283.951 89.2104C283.9 89.2104 283.951 89.1008 283.988 89.1227C285.408 89.6938 286.784 90.3703 288.103 91.1466C288.103 90.489 288.103 89.8314 288.103 89.1738C288.103 85.7836 288.103 82.3861 288.227 78.9886C287.365 78.5575 286.473 78.1703 285.611 77.7319C285.559 77.7319 285.611 77.6077 285.654 77.6296C286.531 77.973 287.379 78.3602 288.234 78.7548C288.286 77.0012 288.351 75.255 288.454 73.5087C288.457 73.4992 288.464 73.4911 288.472 73.4854C288.481 73.4796 288.491 73.4766 288.501 73.4766C288.511 73.4766 288.521 73.4796 288.53 73.4854C288.538 73.4911 288.545 73.4992 288.549 73.5087C288.666 76.7528 288.658 80.0115 288.614 83.2629C289.513 82.5322 290.464 81.9185 291.377 81.2244C291.377 81.2244 291.443 81.2244 291.377 81.2828C290.427 82.0135 289.535 82.8099 288.585 83.5332C288.585 83.7159 288.585 83.8986 288.585 84.0812C289.557 83.6428 290.537 83.2264 291.509 82.8099C291.589 82.7734 291.655 82.883 291.575 82.9195C290.581 83.4017 289.587 83.8913 288.571 84.3369C288.571 85.9517 288.519 87.5591 288.505 89.1738C288.468 91.9868 288.403 94.7998 288.344 97.6128C290.171 96.6849 291.998 95.7789 293.877 94.9094C293.95 94.8729 294.008 94.9752 293.935 95.0117C292.123 96.0523 290.254 96.9914 288.337 97.8247C288.288 100.163 288.247 102.501 288.212 104.839C288.212 104.978 287.986 104.978 287.993 104.839C287.993 101.858 288.03 98.8769 288.037 95.8958C286.171 95.2516 284.341 94.5077 282.555 93.6673C282.526 93.6235 282.592 93.4701 282.68 93.5066Z" fill="#37474F"/>
<path d="M24.5582 99.8964C24.9236 100.269 29.1994 100.43 30.7562 100.43C32.313 100.43 36.6033 100.269 36.9614 99.8964C37.3196 99.5238 32.1448 71.1016 30.7562 71.1016C29.3675 71.1016 24.1854 99.5238 24.5582 99.8964Z" fill="#37474F"/>
<path d="M24.4776 92.6499C25.5374 93.0518 29.4477 94.6446 30.3248 95.1122V94.5788L27.4889 92.9203C26.4259 92.3815 25.3937 91.7839 24.3972 91.1302C24.3461 91.1302 24.3972 91.006 24.3972 91.0279C25.4306 91.5134 26.4315 92.065 27.3939 92.6791C28.3514 93.249 29.3088 93.8263 30.2517 94.4108V90.3265C28.7083 89.6847 27.2155 88.9276 25.7859 88.0614C25.7421 88.0614 25.7859 87.9372 25.8298 87.9665C27.3438 88.5876 28.8096 89.3203 30.2151 90.1584C30.2151 89.4278 30.2151 88.7409 30.2151 88.0322C30.2151 84.379 30.259 80.7257 30.354 77.0725C29.4258 76.5976 28.4683 76.1884 27.5401 75.7208C27.4816 75.6843 27.5401 75.582 27.5912 75.6039C28.5341 75.9692 29.4404 76.4076 30.3613 76.8168C30.4125 74.9317 30.4856 73.0539 30.6025 71.1688C30.6025 71.1104 30.6902 71.1104 30.6975 71.1688C30.8291 74.6686 30.8145 78.1611 30.7706 81.661C31.7354 80.8938 32.7586 80.1997 33.738 79.469C33.7746 79.469 33.8111 79.5056 33.7746 79.5348C32.7513 80.3166 31.7939 81.1787 30.7706 81.9532C30.7706 82.1505 30.7706 82.3478 30.7706 82.545C31.8085 82.0701 32.8683 81.6244 33.9208 81.1714C34.0085 81.1349 34.0816 81.2591 33.9939 81.2956C32.9194 81.8144 31.8523 82.3332 30.7633 82.8227C30.7633 84.5543 30.7122 86.286 30.6902 88.0176C30.6464 91.0425 30.5806 94.0674 30.5148 97.0923C32.4639 96.1181 34.447 95.1439 36.4643 94.1697C36.5447 94.1697 36.6104 94.2427 36.5374 94.2866C34.5856 95.4022 32.5752 96.4119 30.5148 97.3115C30.4563 99.8249 30.4052 102.338 30.3759 104.852C30.3693 104.879 30.3538 104.903 30.3319 104.92C30.31 104.937 30.2831 104.946 30.2553 104.946C30.2276 104.946 30.2006 104.937 30.1788 104.92C30.1569 104.903 30.1414 104.879 30.1347 104.852C30.1713 101.644 30.1786 98.4367 30.1859 95.2364C28.1802 94.545 26.2136 93.745 24.2949 92.8399C24.3022 92.7741 24.368 92.5915 24.4776 92.6499Z" fill="#455A64"/>
<path d="M294.235 99.8964C294.601 100.269 298.876 100.43 300.433 100.43C301.99 100.43 306.28 100.269 306.638 99.8964C306.997 99.5238 301.822 71.1016 300.433 71.1016C299.045 71.1016 293.87 99.5238 294.235 99.8964Z" fill="#37474F"/>
<path d="M294.177 92.644C295.237 93.0459 299.147 94.6387 300.024 95.1063C300.024 94.9237 300.024 94.7483 300.024 94.5729L297.1 92.9144C296.049 92.3649 295.029 91.7575 294.045 91.0951C293.994 91.0951 294.045 90.9708 294.089 90.9928C295.12 91.4783 296.119 92.0299 297.079 92.644C298.043 93.2139 298.994 93.7911 299.944 94.3757C299.944 93.0167 299.944 91.6503 299.944 90.2913C298.4 89.6496 296.907 88.8925 295.478 88.0263C295.434 88.0263 295.478 87.9021 295.522 87.9313C297.049 88.5494 298.527 89.2821 299.944 90.1233C299.944 89.3926 299.944 88.7058 299.944 87.9971C299.988 84.3439 299.995 80.6906 300.083 77.0374C299.154 76.5624 298.197 76.1533 297.269 75.6857C297.21 75.6491 297.269 75.5469 297.32 75.5688C298.263 75.9341 299.169 76.3725 300.09 76.7816C300.141 74.8966 300.214 73.0188 300.331 71.1337C300.335 71.1242 300.341 71.1161 300.35 71.1104C300.358 71.1046 300.368 71.1016 300.379 71.1016C300.389 71.1016 300.399 71.1046 300.407 71.1104C300.416 71.1161 300.422 71.1242 300.426 71.1337C300.558 74.6335 300.543 78.126 300.499 81.6258C301.464 80.8587 302.487 80.1645 303.467 79.4339C303.467 79.4339 303.54 79.4704 303.467 79.4997C302.443 80.2814 301.486 81.1436 300.463 81.9181C300.463 82.1154 300.463 82.3127 300.463 82.5099C301.508 82.035 302.56 81.5893 303.62 81.1363C303.7 81.0998 303.774 81.224 303.686 81.2605C302.611 81.7793 301.544 82.298 300.455 82.7876C300.455 84.5192 300.404 86.2509 300.382 87.9825C300.338 91.0074 300.273 94.0323 300.207 97.0571C302.156 96.0829 304.141 95.1087 306.164 94.1346C306.179 94.1258 306.197 94.1236 306.215 94.1284C306.232 94.1332 306.246 94.1446 306.255 94.1601C306.264 94.1756 306.266 94.194 306.261 94.2111C306.256 94.2282 306.245 94.2427 306.229 94.2515C304.278 95.367 302.267 96.3768 300.207 97.2763C300.148 99.7898 300.097 102.303 300.068 104.817C300.061 104.844 300.046 104.867 300.024 104.885C300.002 104.902 299.975 104.911 299.947 104.911C299.92 104.911 299.893 104.902 299.871 104.885C299.849 104.867 299.833 104.844 299.827 104.817C299.827 101.609 299.871 98.4015 299.878 95.2013C297.872 94.5099 295.906 93.7099 293.987 92.8048C293.98 92.7682 294.045 92.5856 294.177 92.644Z" fill="#455A64"/>
<path d="M226.934 99.8964C227.3 100.269 231.576 100.43 233.132 100.43C234.689 100.43 238.979 100.269 239.338 99.8964C239.696 99.5238 234.521 71.1016 233.132 71.1016C231.744 71.1016 226.54 99.5238 226.934 99.8964Z" fill="#37474F"/>
<path d="M226.825 92.644C227.885 93.0459 231.795 94.6387 232.672 95.1063V94.5729L229.836 92.9144C228.785 92.3649 227.765 91.7575 226.781 91.0951C226.73 91.0951 226.781 90.9708 226.825 90.9928C227.856 91.4783 228.854 92.0299 229.814 92.644C230.789 93.2139 231.744 93.7911 232.679 94.3757C232.679 93.0167 232.679 91.6503 232.679 90.2913C231.136 89.6496 229.643 88.8925 228.214 88.0263C228.17 88.0263 228.214 87.9021 228.258 87.9313C229.772 88.5525 231.237 89.2852 232.643 90.1233C232.643 89.3926 232.643 88.7058 232.643 87.9971C232.679 84.3439 232.687 80.6906 232.782 77.0374C231.854 76.5624 230.896 76.1533 229.968 75.6857C229.909 75.6491 229.968 75.5469 230.019 75.5688C230.962 75.9341 231.868 76.3725 232.789 76.7816C232.84 74.8966 232.913 73.0188 233.03 71.1337C233.034 71.1242 233.041 71.1161 233.049 71.1104C233.058 71.1046 233.068 71.1016 233.078 71.1016C233.088 71.1016 233.098 71.1046 233.106 71.1104C233.115 71.1161 233.122 71.1242 233.125 71.1337C233.257 74.6335 233.242 78.126 233.198 81.6258C234.163 80.8587 235.186 80.1645 236.166 79.4339C236.202 79.4339 236.239 79.4704 236.202 79.4997C235.179 80.2814 234.222 81.1436 233.198 81.9181C233.198 82.1154 233.198 82.3127 233.198 82.5099C234.236 82.035 235.296 81.5893 236.349 81.1363C236.436 81.0998 236.509 81.224 236.422 81.2605C235.347 81.7793 234.28 82.298 233.191 82.7876C233.191 84.5192 233.14 86.2509 233.118 87.9825C233.074 91.0074 233.008 94.0323 232.943 97.0571C234.892 96.0829 236.875 95.1087 238.892 94.1346C238.972 94.1346 239.038 94.2076 238.965 94.2515C237.013 95.367 235.003 96.3768 232.943 97.2763C232.884 99.7898 232.833 102.303 232.804 104.817C232.797 104.844 232.782 104.867 232.76 104.885C232.738 104.902 232.711 104.911 232.683 104.911C232.655 104.911 232.628 104.902 232.607 104.885C232.585 104.867 232.569 104.844 232.563 104.817C232.599 101.609 232.606 98.4015 232.614 95.2013C230.608 94.5099 228.641 93.7099 226.723 92.8048C226.657 92.7682 226.723 92.5856 226.825 92.644Z" fill="#455A64"/>
<path d="M42.8009 101.426C42.5451 101.682 39.5558 101.799 38.4667 101.799C37.3777 101.799 34.3884 101.682 34.1325 101.426C33.8767 101.171 37.4946 81.2969 38.4667 81.2969C39.4388 81.2969 43.0567 101.171 42.8009 101.426Z" fill="#455A64"/>
<path d="M42.8596 96.3591C42.1287 96.6367 39.3879 97.7546 38.7959 98.0761C38.7959 97.9519 38.7959 97.8277 38.7959 97.7035L40.7839 96.5491C41.5176 96.1638 42.23 95.7394 42.9181 95.2777C42.9181 95.2777 42.9181 95.1901 42.9181 95.2047C42.1975 95.5447 41.4993 95.9303 40.8278 96.3591C40.1553 96.7536 39.4902 97.1628 38.8251 97.572C38.8251 96.6221 38.8251 95.665 38.8251 94.7151C39.9016 94.266 40.9424 93.736 41.9387 93.1296C41.9387 93.1296 41.9387 93.0493 41.9387 93.0639C40.8714 93.492 39.8379 94.0001 38.847 94.5836C38.847 94.0941 38.847 93.5972 38.847 93.1223C38.847 90.5724 38.847 88.0078 38.752 85.4724C39.4025 85.1436 40.0676 84.8514 40.7181 84.5226C40.7242 84.5186 40.7291 84.5132 40.7325 84.5068C40.7359 84.5004 40.7377 84.4933 40.7377 84.486C40.7377 84.4788 40.7359 84.4717 40.7325 84.4653C40.7291 84.4589 40.7242 84.4535 40.7181 84.4495C40.0603 84.7052 39.4244 85.0121 38.7813 85.2898C38.7813 83.9746 38.6935 82.6594 38.6131 81.3516H38.5474C38.4597 83.7919 38.467 86.2396 38.4962 88.6581C37.8238 88.1247 37.1075 87.6498 36.4205 87.1237C36.4205 87.1237 36.3693 87.1237 36.4205 87.1748C37.1514 87.7155 37.8019 88.322 38.5181 88.8626C38.5181 89.0015 38.5181 89.1403 38.5181 89.2718C37.7872 88.943 37.0564 88.6288 36.3255 88.3146C36.267 88.3146 36.2158 88.3731 36.2743 88.4023C37.0052 88.7603 37.7361 89.133 38.5328 89.4691C38.5328 90.6819 38.5766 91.8875 38.5912 93.1223C38.5912 95.2339 38.6643 97.3528 38.7082 99.4643C37.3341 98.7678 35.9478 98.0907 34.5494 97.4331C34.4982 97.4331 34.4471 97.4843 34.5055 97.5135C35.8672 98.2928 37.2702 98.9977 38.7082 99.6251C38.752 101.384 38.7861 103.14 38.8105 104.893C38.8105 105.003 38.9786 105.003 38.9713 104.893C38.9713 102.657 38.9713 100.414 38.9713 98.1784C40.3715 97.6909 41.7451 97.13 43.0862 96.4979C42.9766 96.4468 42.9327 96.3299 42.8596 96.3591Z" fill="#37474F"/>
<path d="M255.804 101.426C255.549 101.682 252.559 101.799 251.47 101.799C250.381 101.799 247.392 101.682 247.136 101.426C246.88 101.171 250.498 81.2969 251.47 81.2969C252.442 81.2969 256.06 101.171 255.804 101.426Z" fill="#455A64"/>
<path d="M255.863 96.3571C255.132 96.6347 252.391 97.7526 251.799 98.0741V97.7088L253.78 96.5543C254.514 96.1691 255.226 95.7447 255.914 95.283C255.951 95.283 255.914 95.1953 255.914 95.2099C255.194 95.5515 254.496 95.9371 253.824 96.3644C253.152 96.7589 252.486 97.1681 251.821 97.5773C251.821 96.6274 251.821 95.6703 251.821 94.7204C252.899 94.2699 253.943 93.7399 254.942 93.1349C254.942 93.1349 254.942 93.0545 254.942 93.0691C253.875 93.4973 252.841 94.0053 251.851 94.5889C251.851 94.0994 251.851 93.6025 251.851 93.1276C251.851 90.5776 251.851 88.013 251.756 85.4777C252.406 85.1489 253.071 84.8567 253.722 84.5279C253.728 84.5213 253.731 84.5131 253.733 84.5044C253.734 84.4956 253.732 84.4867 253.728 84.4788C253.724 84.4709 253.718 84.4644 253.71 84.4601C253.703 84.4558 253.694 84.454 253.685 84.4548C253.027 84.7105 252.399 85.0174 251.748 85.295C251.748 83.9799 251.668 82.6647 251.587 81.3568C251.587 81.3471 251.584 81.3379 251.577 81.331C251.57 81.3242 251.561 81.3203 251.551 81.3203C251.541 81.3203 251.532 81.3242 251.525 81.331C251.518 81.3379 251.514 81.3471 251.514 81.3568C251.427 83.7972 251.434 86.2449 251.463 88.6633C250.791 88.13 250.074 87.655 249.387 87.129C249.387 87.129 249.336 87.129 249.387 87.1801C250.118 87.7208 250.769 88.3272 251.485 88.8679C251.485 89.0067 251.485 89.1456 251.485 89.2771C250.754 88.9483 250.023 88.6341 249.292 88.3199C249.241 88.3199 249.19 88.3784 249.249 88.4076C249.979 88.7656 250.747 89.1382 251.507 89.4743C251.507 90.6872 251.507 91.8928 251.558 93.1276C251.558 95.2392 251.631 97.3581 251.675 99.4696C250.301 98.7731 248.915 98.096 247.516 97.4384C247.465 97.4384 247.421 97.4896 247.473 97.5188C248.836 98.2995 250.241 99.0044 251.682 99.6304C251.719 101.391 251.756 103.145 251.777 104.898C251.783 104.916 251.794 104.932 251.809 104.944C251.824 104.955 251.843 104.961 251.862 104.961C251.88 104.961 251.899 104.955 251.914 104.944C251.929 104.932 251.94 104.916 251.946 104.898C251.946 102.663 251.946 100.419 251.909 98.1837C253.309 97.6962 254.683 97.1352 256.024 96.5032C255.98 96.4447 255.936 96.3278 255.863 96.3571Z" fill="#37474F"/>
<path d="M96.4337 101.426C96.1779 101.682 93.1886 101.799 92.0995 101.799C91.0105 101.799 88.0211 101.682 87.7653 101.426C87.5095 101.171 91.1347 81.2969 92.0995 81.2969C93.0643 81.2969 96.6895 101.171 96.4337 101.426Z" fill="#455A64"/>
<path d="M96.4924 96.3596C95.7615 96.6372 93.0207 97.7551 92.4286 98.0766V97.7113L94.4093 96.5569C95.1454 96.1716 95.8603 95.7473 96.5509 95.2855C96.5509 95.2855 96.5509 95.1979 96.5509 95.2125C95.8303 95.5525 95.1321 95.9381 94.4605 96.3669C93.7881 96.7615 93.123 97.1706 92.4579 97.5798C92.4579 96.6299 92.4579 95.6728 92.4579 94.7229C93.5367 94.2739 94.58 93.7439 95.5788 93.1374C95.6153 93.1374 95.5788 93.0571 95.5788 93.0717C94.5128 93.5028 93.4795 94.0107 92.4871 94.5914C92.4871 94.1019 92.4871 93.6051 92.4871 93.1301C92.4871 90.5802 92.4506 88.0156 92.3848 85.4802C93.0353 85.1514 93.7004 84.8592 94.3509 84.5304C94.3947 84.5304 94.3509 84.4354 94.3509 84.4573C93.6931 84.7131 93.0572 85.0199 92.414 85.2976C92.3775 83.9824 92.3263 82.6672 92.2459 81.3594H92.1801C92.0851 83.7997 92.0924 86.2474 92.1217 88.6659C91.4492 88.1325 90.733 87.6576 90.0532 87.1315C90.0532 87.1315 90.0021 87.1315 90.0532 87.1826C90.7841 87.7233 91.4419 88.3298 92.1582 88.8704V89.2796C91.4273 88.9508 90.6964 88.6366 89.9655 88.3225C89.9071 88.3225 89.8559 88.3809 89.9144 88.4101C90.6453 88.7682 91.3761 89.1408 92.1728 89.4769C92.1728 90.6898 92.2094 91.8953 92.224 93.1301C92.224 95.2417 92.2971 97.3606 92.3409 99.4722C90.9669 98.7415 89.5782 98.0985 88.1895 97.441C88.131 97.441 88.0871 97.4921 88.1383 97.5213C89.5017 98.3021 90.9072 99.007 92.3482 99.6329C92.3848 101.394 92.4213 103.147 92.4433 104.901C92.4487 104.919 92.4597 104.935 92.4749 104.946C92.49 104.957 92.5084 104.964 92.5273 104.964C92.5462 104.964 92.5646 104.957 92.5797 104.946C92.5949 104.935 92.606 104.919 92.6114 104.901C92.6114 102.665 92.6114 100.422 92.5748 98.1862C93.9769 97.6974 95.3528 97.1365 96.697 96.5057C96.6166 96.4473 96.5655 96.3304 96.4924 96.3596Z" fill="#37474F"/>
<path d="M278.36 11.4844L281.54 12.2077V173.615H278.36V11.4844Z" fill="#2563EB"/>
<path opacity="0.3" d="M278.36 11.4844L281.54 12.2077V173.615H278.36V11.4844Z" fill="black"/>
<path d="M254.95 36.0933L302.465 35.2749V16.5703L254.95 21.8821V36.0933Z" fill="#2563EB"/>
<path d="M267.813 30.6858L296.94 29.2537V23.3281L267.813 25.6662V30.6858Z" fill="white"/>
<path d="M267.813 23.0312V33.3115L260.482 28.6353L267.813 23.0312Z" fill="white"/>
<path d="M279.457 20.6849C279.457 20.8969 279.676 21.0431 279.946 21.0138C280.067 21.0134 280.184 20.9696 280.275 20.8905C280.366 20.8113 280.426 20.7021 280.443 20.5826C280.443 20.3707 280.224 20.2245 279.946 20.2537C279.826 20.2544 279.711 20.2985 279.621 20.3777C279.531 20.457 279.472 20.5661 279.457 20.6849Z" fill="white"/>
<path d="M279.457 33.9975C279.457 34.2094 279.676 34.3702 279.946 34.3629C280.064 34.3735 280.181 34.3384 280.274 34.2649C280.366 34.1914 280.427 34.0852 280.443 33.9682C280.443 33.7563 280.224 33.5955 279.946 33.6028C279.83 33.5942 279.714 33.6302 279.624 33.7035C279.533 33.7768 279.473 33.8819 279.457 33.9975Z" fill="white"/>
<path d="M244.242 122.545C244.242 122.545 244.768 120.068 245.836 119.688C246.16 119.603 246.504 119.628 246.813 119.76C247.121 119.893 247.377 120.124 247.539 120.419C247.539 120.419 247.787 118.051 249.293 117.343C250.798 116.634 251.924 118.073 251.924 118.073C251.924 118.073 253.079 115.07 255.14 115.07C257.201 115.07 258.246 119.454 258.246 119.454C258.246 119.454 259.459 118.139 260.709 118.884C261.959 119.63 261.959 122.538 261.959 122.538L244.242 122.545Z" fill="#37474F"/>
<path d="M0 171.576C0 171.576 1.08903 166.389 3.31825 165.607C5.54747 164.825 6.885 167.119 6.885 167.119C6.885 167.119 7.40393 162.18 10.5395 160.704C13.675 159.228 16.0358 162.253 16.0358 162.253C16.0358 162.253 18.4404 155.984 22.7454 155.984C27.0503 155.984 29.2211 165.154 29.2211 165.154C29.2211 165.154 31.7646 162.421 34.3373 163.963C36.91 165.505 36.9758 171.576 36.9758 171.576H0Z" fill="#37474F"/>
<path d="M285.859 149.035C285.859 149.035 286.656 145.309 288.249 144.739C289.843 144.169 290.815 145.835 290.815 145.835C290.815 145.835 291.195 142.277 293.453 141.21C295.712 140.143 297.407 142.328 297.407 142.328C297.407 142.328 299.14 137.812 302.239 137.812C305.338 137.812 306.902 144.388 306.902 144.388C306.902 144.388 308.729 142.423 310.6 143.533C312.471 144.644 312.478 149.006 312.478 149.006L285.859 149.035Z" fill="#455A64"/>
<path d="M37.5757 134.844H76.5761C76.5761 134.844 75.297 129.349 72.7097 128.962C70.1223 128.575 68.9163 131.154 68.9163 131.154C68.9163 131.154 69.0333 123.482 64.2021 122.182C59.3709 120.881 55.3217 127.647 55.3217 127.647C55.3217 127.647 52.2958 123.782 48.1663 124.03C44.0368 124.279 42.9916 130.657 42.9916 130.657C42.9916 130.657 39.2348 128.392 37.5757 134.844Z" fill="#37474F"/>
<path d="M260.812 122.548H270.627C270.627 122.548 270.627 121.086 269.641 120.699C269.379 120.585 269.088 120.56 268.811 120.628C268.534 120.695 268.286 120.851 268.106 121.072C268.106 121.072 267.711 118.383 265.913 118.383C264.115 118.383 263.253 120.699 263.253 120.699C263.1 120.477 262.886 120.305 262.637 120.203C262.387 120.102 262.113 120.076 261.849 120.129C260.855 120.239 260.812 122.548 260.812 122.548Z" fill="#455A64"/>
<path d="M21.4663 134.85H42.019C42.019 134.85 41.9751 131.796 39.9579 130.985C39.4091 130.748 38.7983 130.695 38.2171 130.835C37.636 130.975 37.1158 131.299 36.7346 131.759C36.7346 131.759 35.916 126.141 32.1519 126.141C28.3879 126.141 26.5899 130.985 26.5899 130.985C26.2677 130.527 25.8209 130.172 25.3027 129.961C24.7845 129.75 24.2165 129.692 23.6663 129.794C21.554 130.072 21.4663 134.85 21.4663 134.85Z" fill="#455A64"/>
<path d="M274.786 174.778H296.939C296.939 174.778 296.888 171.483 294.747 170.606C294.156 170.349 293.498 170.29 292.871 170.441C292.245 170.591 291.684 170.942 291.275 171.439C291.275 171.439 290.383 165.375 286.327 165.375C282.27 165.375 280.326 170.606 280.326 170.606C279.981 170.108 279.498 169.721 278.936 169.492C278.373 169.264 277.757 169.204 277.162 169.321C274.874 169.613 274.786 174.778 274.786 174.778Z" fill="#455A64"/>
<path d="M75.7351 116.259H87.656C87.656 116.259 87.6559 114.484 86.45 114.016C86.1332 113.877 85.7796 113.845 85.4431 113.926C85.1067 114.006 84.8057 114.194 84.5862 114.462C84.5862 114.462 84.1038 111.203 81.9258 111.203C79.7477 111.203 78.6952 114.016 78.6952 114.016C78.5101 113.747 78.2503 113.538 77.9476 113.414C77.645 113.291 77.3129 113.259 76.9922 113.322C75.779 113.483 75.7351 116.259 75.7351 116.259Z" fill="#455A64"/>
<path d="M217.609 38.5202C217.258 38.3421 216.897 38.1859 216.527 38.0525C216.147 37.9147 215.752 37.824 215.35 37.7822C215.227 37.7772 215.104 37.792 214.985 37.826L214.875 37.8772L214.802 37.9283L214.678 38.0306C214.527 38.1694 214.383 38.3157 214.247 38.469C213.984 38.7613 213.75 39.0755 213.516 39.3896L213.808 39.2873C213.415 39.1752 213.015 39.0921 212.61 39.0389C212.401 39.0093 212.191 38.9946 211.981 38.9951C211.872 38.9842 211.761 38.9842 211.652 38.9951L211.469 39.0389L211.287 39.1266C211.106 39.2529 210.946 39.4056 210.812 39.5796C210.687 39.7403 210.57 39.9084 210.461 40.0764C210.249 40.4212 210.061 40.78 209.898 41.1505C210.161 40.8436 210.41 40.5294 210.673 40.2372C210.799 40.0914 210.933 39.9523 211.075 39.8207C211.199 39.6911 211.342 39.5803 211.499 39.4919C211.651 39.4384 211.813 39.4209 211.974 39.4408C212.16 39.4578 212.346 39.4847 212.529 39.5212C212.909 39.5869 213.26 39.6819 213.662 39.7842L213.845 39.8353L213.954 39.6819C214.174 39.3677 214.408 39.0608 214.641 38.7686C214.753 38.6234 214.873 38.4844 215 38.3521L215.095 38.2644H215.138C215.204 38.239 215.273 38.2242 215.343 38.2206C215.716 38.2183 216.089 38.255 216.454 38.3302C216.841 38.3959 217.221 38.4763 217.609 38.5202Z" fill="#263238"/>
<path d="M213.362 50.0075C212.897 49.6443 212.409 49.3123 211.9 49.0138C211.385 48.6963 210.83 48.4504 210.248 48.2831C210.07 48.234 209.884 48.2166 209.7 48.232L209.517 48.2758L209.4 48.3343L209.181 48.4512C208.928 48.6079 208.684 48.7787 208.45 48.9626C207.975 49.3206 207.537 49.6933 207.098 50.1097L207.559 50.044C207.013 49.757 206.446 49.5128 205.863 49.3133C205.567 49.2099 205.264 49.1269 204.957 49.0649C204.793 49.0313 204.627 49.0093 204.46 48.9992C204.367 48.9922 204.274 48.9922 204.182 48.9992C204.085 49.0166 203.99 49.041 203.897 49.0722C203.593 49.2024 203.312 49.3799 203.064 49.5983C202.831 49.7989 202.609 50.0111 202.398 50.2339C201.985 50.6736 201.606 51.1451 201.266 51.6441C201.733 51.2642 202.187 50.9135 202.662 50.5335C202.896 50.3509 203.137 50.1828 203.393 50.0294C203.619 49.8772 203.865 49.7567 204.123 49.6714C204.369 49.6428 204.618 49.6652 204.854 49.7371C205.117 49.8102 205.388 49.9125 205.651 50.0148C206.185 50.2266 206.725 50.4751 207.237 50.7454L207.5 50.8769L207.697 50.6796C208.107 50.2924 208.538 49.9052 208.969 49.5471C209.18 49.3654 209.399 49.1947 209.627 49.0357L209.788 48.9334H209.861C209.965 48.9148 210.071 48.9148 210.175 48.9334C210.724 49.0398 211.26 49.2014 211.776 49.4156C212.317 49.5691 212.821 49.7956 213.362 50.0075Z" fill="#263238"/>
<path d="M95.9661 67.7081C95.6492 67.4766 95.3171 67.2666 94.972 67.0795C94.6243 66.8764 94.2506 66.7215 93.8611 66.6191C93.7379 66.5957 93.6115 66.5957 93.4883 66.6191L93.3714 66.6556L93.291 66.6922L93.1521 66.7726C92.9694 66.8895 92.8159 67.0064 92.6551 67.1307C92.3481 67.3865 92.0631 67.6496 91.7781 67.9274L92.085 67.8762C91.7149 67.6975 91.3312 67.5484 90.9375 67.4304C90.7393 67.3662 90.5365 67.3173 90.3309 67.2842C90.2198 67.2644 90.1074 67.2522 89.9947 67.2476H89.812L89.6219 67.3061C89.421 67.3974 89.2379 67.5236 89.0811 67.6789C88.9283 67.8133 88.7843 67.9574 88.6498 68.1101C88.3792 68.4129 88.1347 68.7381 87.9189 69.0822C88.2259 68.8191 88.5183 68.5486 88.8326 68.3074C88.9818 68.1818 89.138 68.0647 89.3003 67.9566C89.4441 67.8507 89.6014 67.7647 89.7681 67.7008C89.9246 67.6661 90.0867 67.6661 90.2432 67.7008C90.424 67.7468 90.6022 67.8029 90.7767 67.8689C91.1422 68.0005 91.5076 68.1539 91.8511 68.3147L92.0266 68.3951L92.1581 68.2563C92.4212 67.9858 92.7063 67.7227 92.984 67.4742C93.1183 67.3491 93.2599 67.2319 93.4079 67.1234C93.4409 67.094 93.4778 67.0694 93.5176 67.0503H93.5614C93.6316 67.0383 93.7032 67.0383 93.7734 67.0503C94.1401 67.1093 94.5 67.2048 94.8478 67.3353C95.2352 67.4377 95.5933 67.5765 95.9661 67.7081Z" fill="#263238"/>
<path d="M105.607 66.1489C105.273 65.6688 104.909 65.21 104.518 64.7752C104.12 64.3164 103.663 63.9134 103.158 63.577C103.006 63.4738 102.834 63.4018 102.654 63.3651H102.464H102.332L102.091 63.4089C101.796 63.4815 101.505 63.5718 101.221 63.6793C100.658 63.8765 100.125 64.1177 99.5841 64.3661L100.045 64.4391C99.603 64.0151 99.1369 63.6174 98.6485 63.2482C98.3923 63.0658 98.1263 62.8975 97.8518 62.744C97.7031 62.6657 97.5492 62.5974 97.3914 62.5395C97.3063 62.5065 97.2182 62.482 97.1283 62.4664C97.0285 62.4591 96.9284 62.4591 96.8286 62.4664C96.5004 62.501 96.1797 62.5873 95.8784 62.7221C95.5934 62.8463 95.323 62.9852 95.0525 63.1313C94.5278 63.4283 94.0269 63.7654 93.5542 64.1396C94.1097 63.9204 94.6652 63.6866 95.2206 63.4966C95.4984 63.3943 95.7761 63.2993 96.0538 63.2263C96.3105 63.15 96.5757 63.1058 96.8432 63.0947C97.0765 63.1426 97.2978 63.237 97.4937 63.3724C97.7325 63.5267 97.9619 63.695 98.1807 63.8765C98.6266 64.2346 99.0651 64.6072 99.4817 65.031L99.6937 65.2282L99.9422 65.104C100.447 64.8483 100.973 64.6145 101.492 64.3734C101.744 64.2613 102.003 64.1637 102.266 64.0811L102.449 64.03H102.537C102.641 64.0411 102.743 64.0707 102.837 64.1177C103.326 64.3835 103.789 64.6967 104.218 65.0529C104.678 65.4109 105.117 65.7835 105.607 66.1489Z" fill="#263238"/>
<path d="M227.081 47.1984C226.747 46.7159 226.383 46.2547 225.992 45.8175C225.593 45.3606 225.136 44.9578 224.632 44.6192C224.478 44.5217 224.307 44.4524 224.128 44.4146C224.065 44.4034 224.001 44.4034 223.938 44.4146H223.806C223.725 44.4251 223.645 44.4397 223.565 44.4585C223.258 44.5315 222.973 44.6265 222.695 44.7215C222.133 44.9261 221.599 45.1672 221.065 45.4522L221.519 45.5252C221.081 45.097 220.614 44.6991 220.123 44.3343C219.866 44.1519 219.6 43.9836 219.326 43.8301C219.177 43.7518 219.023 43.6835 218.866 43.6255C218.78 43.5926 218.692 43.5681 218.602 43.5525C218.503 43.545 218.402 43.545 218.303 43.5525C217.974 43.5871 217.654 43.6734 217.353 43.8082C217.068 43.9324 216.797 44.0712 216.527 44.2174C216 44.5117 215.499 44.8489 215.028 45.2257C215.584 45.0065 216.139 44.7727 216.695 44.5827C216.972 44.4804 217.25 44.3854 217.528 44.3123C217.784 44.2325 218.049 44.1883 218.317 44.1808C218.552 44.2253 218.774 44.3201 218.968 44.4585C219.208 44.611 219.437 44.7794 219.655 44.9626C220.101 45.3206 220.539 45.6933 220.956 46.1097L221.168 46.3143L221.416 46.1901C221.921 45.9344 222.447 45.7006 222.966 45.4595C223.217 45.3454 223.476 45.2477 223.741 45.1672L223.923 45.1161H224.011C224.116 45.1302 224.217 45.1623 224.311 45.211C224.802 45.4785 225.267 45.7916 225.699 46.1463C226.204 46.4531 226.628 46.8331 227.081 47.1984Z" fill="#263238"/>
<path d="M162.492 55.1123C168.895 65.9039 176.605 79.1141 183.257 92.0466C186.18 97.6945 192.597 109.414 194.447 112.709C196.712 116.75 175.531 123.727 174.245 120.82C173.404 118.92 169.589 107.741 166.6 98.2132C162.748 86.0114 156.63 69.9371 156.236 58.3198C155.892 47.9373 160.014 50.9403 162.492 55.1123Z" fill="#EB9481"/>
<path d="M193.262 110.859C194.57 112.73 199.935 121.914 200.827 124.742C201.718 127.569 203.677 136.016 201.558 136.922C199.438 137.828 198.634 135.402 198.634 135.402C198.634 135.402 198.905 139.092 196.683 139.786C194.461 140.48 193.386 136.702 193.386 136.702C193.386 136.702 193.386 140.509 191.121 141.086C188.855 141.664 188.416 137.638 188.416 137.638C188.416 137.638 188.577 141.116 186.523 140.787C184.046 140.392 184.477 133.948 183.256 130.865C182.978 130.134 176.634 117.077 176.634 117.077L193.262 110.859Z" fill="#EB9481"/>
<path d="M188.489 138.003C188.796 133.261 188.109 131.135 185.872 127.043C185.829 126.963 185.938 126.883 185.989 126.963C188.548 130.784 189.797 133.327 188.723 138.04C188.664 138.259 188.474 138.23 188.489 138.003Z" fill="#263238"/>
<path d="M193.387 137.158C193.277 132.204 192.546 129.895 190.521 125.416C190.521 125.358 190.595 125.299 190.631 125.365C192.992 129.581 194.176 132.145 193.635 137.114C193.613 137.296 193.394 137.348 193.387 137.158Z" fill="#263238"/>
<path d="M198.554 135.207C198.101 130.421 197.414 127.849 194.899 123.758C194.893 123.748 194.888 123.737 194.885 123.726C194.883 123.714 194.883 123.702 194.885 123.691C194.887 123.679 194.891 123.668 194.897 123.658C194.904 123.649 194.912 123.64 194.921 123.633C194.931 123.627 194.942 123.622 194.953 123.619C194.965 123.617 194.976 123.617 194.988 123.619C195 123.621 195.011 123.625 195.02 123.631C195.03 123.637 195.039 123.646 195.046 123.655C198.028 127.579 198.905 130.779 198.7 135.178C198.685 135.477 198.583 135.506 198.554 135.207Z" fill="#263238"/>
<path d="M175.187 114.511C175.187 114.511 173.726 120.276 173.623 122.95C173.521 125.624 176.876 135.722 179.098 135.123C181.97 134.348 181.188 128.145 180.406 125.15C180.406 125.15 187.043 123.374 187.445 118.8C187.847 114.226 175.187 114.511 175.187 114.511Z" fill="#EB9481"/>
<path d="M179.821 134.642C181.926 132.056 180.647 128.198 180.106 125.239C180.096 125.195 180.097 125.15 180.109 125.106C180.12 125.063 180.142 125.024 180.172 124.991C180.202 124.958 180.24 124.932 180.282 124.917C180.324 124.902 180.369 124.897 180.413 124.902C183.147 123.975 186.728 121.863 187.569 118.933C187.573 118.918 187.583 118.906 187.595 118.897C187.608 118.888 187.623 118.883 187.638 118.883C187.653 118.883 187.669 118.888 187.681 118.897C187.693 118.906 187.703 118.918 187.708 118.933C187.232 122.199 183.878 124.552 180.823 125.385C181.422 128.41 182.533 132.333 179.843 134.635C179.829 134.679 179.807 134.664 179.821 134.642Z" fill="#263238"/>
<path d="M176.357 72.8572L159.824 78.4905C159.824 78.4905 155.958 65.5069 155.059 57.3455C154.16 49.1842 156.952 46.1154 164.356 55.5554C168.705 61.0724 172.713 66.8505 176.357 72.8572Z" fill="#2563EB"/>
<path d="M176.357 72.8572L159.824 78.4905C159.824 78.4905 155.958 65.5069 155.059 57.3455C154.16 49.1842 156.952 46.1154 164.356 55.5554C168.705 61.0724 172.713 66.8505 176.357 72.8572Z" fill="#2563EB"/>
<path d="M159.802 75.338C162.048 74.3297 164.314 73.3799 166.599 72.4885C167.732 72.0428 168.858 71.5898 169.998 71.1733C171.138 70.7568 172.373 70.3915 173.55 69.9531C173.631 69.9531 173.689 70.0481 173.609 70.0773C172.49 70.5376 171.416 71.0783 170.283 71.5386C169.15 71.9989 167.959 72.4519 166.797 72.9049C164.502 73.8061 162.185 74.6463 159.846 75.4257C159.84 75.4311 159.833 75.4352 159.825 75.4374C159.818 75.4397 159.81 75.4401 159.802 75.4387C159.794 75.4373 159.787 75.4341 159.78 75.4293C159.774 75.4246 159.769 75.4184 159.765 75.4113C159.762 75.4041 159.76 75.3963 159.76 75.3883C159.76 75.3803 159.762 75.3725 159.765 75.3654C159.769 75.3583 159.774 75.3521 159.78 75.3473C159.787 75.3426 159.794 75.3394 159.802 75.338Z" fill="#263238"/>
<path opacity="0.1" d="M173.396 73.8521L159.831 78.4771C159.831 78.4771 155.95 65.4862 155.058 57.3321C154.554 52.7509 155.219 49.7699 157.2 49.7188C160.876 55.0525 169.296 67.3493 173.396 73.8521Z" fill="black"/>
<path d="M139.79 54.7773C125.786 66.2412 111.87 80.35 112.513 85.8591C113.376 93.2606 124.646 107.618 130.405 114.764C132.094 116.861 148.181 103.365 146.375 101.115C144.183 98.4043 131.136 84.8435 131.027 84.522C130.756 83.7914 141.603 64.8822 143.934 60.491C147.815 53.1333 146.01 49.6847 139.79 54.7773Z" fill="#EB9481"/>
<path d="M139.6 125.042C135.785 122.682 129.865 114.813 129.17 112.358C128.476 109.903 141.53 99.411 144.073 100.017C146.617 100.624 158.844 109.567 160.379 113.9C161.914 118.233 143.554 127.49 139.6 125.042Z" fill="#EB9481"/>
<path d="M156.688 107.714C154.313 107.714 155.643 110.505 155.643 110.505C155.643 110.505 152.72 106.918 150.293 107.839C147.866 108.759 149.65 112.076 149.774 112.317C149.621 112.127 146.851 108.905 144.497 110.082C142.144 111.258 144.336 114.371 144.497 114.568C144.292 114.436 141.573 112.734 139.995 114.042C137.239 116.292 144.029 120.837 144.468 123.679C144.468 123.679 139.732 124.972 139.607 125.038C139.607 125.038 145.973 129.495 149.774 128.691C150.329 128.583 150.83 128.289 151.194 127.857C151.558 127.425 151.764 126.881 151.777 126.317C151.777 126.317 153.677 127.975 155.577 127.106C156.549 126.653 156.696 124.695 156.696 124.695C157.144 125.049 157.681 125.273 158.249 125.342C158.817 125.41 159.392 125.32 159.912 125.082C161.22 124.388 161.169 122.532 161.169 122.532C161.169 122.532 163.244 123.043 164.348 121.896C166.585 119.617 161.783 107.766 156.688 107.714Z" fill="#EB9481"/>
<path d="M161.198 122.235C161.198 122.279 161.264 122.235 161.264 122.235C160.621 117.794 158.643 113.653 155.592 110.362C155.49 110.259 155.278 110.362 155.373 110.508C157.871 114.115 159.833 118.065 161.198 122.235Z" fill="#263238"/>
<path d="M156.769 124.735C156.769 124.747 156.773 124.758 156.782 124.766C156.79 124.775 156.801 124.779 156.813 124.779C156.824 124.779 156.835 124.775 156.844 124.766C156.852 124.758 156.856 124.747 156.856 124.735C156.104 119.847 153.625 115.389 149.869 112.168C149.73 112.066 149.504 112.103 149.65 112.234C152.054 114.506 155.512 120.805 156.769 124.735Z" fill="#263238"/>
<path d="M144.139 114.453C147.794 117.631 150.038 121.665 151.755 126.143C151.755 126.202 151.857 126.143 151.85 126.143C151.609 123.725 150.213 120.992 148.927 118.954C147.786 117.042 146.166 115.46 144.227 114.365C144.176 114.285 144.059 114.387 144.139 114.453Z" fill="#263238"/>
<path d="M155.643 110.514C155.027 109.874 154.351 109.295 153.626 108.782C152.943 108.258 152.134 107.923 151.28 107.81C150.886 107.781 150.496 107.898 150.184 108.139C149.863 108.385 149.611 108.71 149.453 109.081C149.332 109.462 149.293 109.864 149.338 110.26C149.384 110.657 149.512 111.04 149.716 111.383L150.629 113.1L149.168 111.807C148.519 111.224 147.778 110.753 146.975 110.411C146.616 110.23 146.222 110.128 145.82 110.11C145.418 110.092 145.017 110.16 144.643 110.309C144.298 110.45 144.011 110.706 143.832 111.033C143.652 111.36 143.59 111.739 143.657 112.106C143.831 112.915 144.202 113.668 144.738 114.298L146.2 116.103L144.263 114.868C143.721 114.528 143.14 114.256 142.531 114.057C141.963 113.845 141.345 113.807 140.755 113.948C140.491 114.021 140.252 114.168 140.068 114.371C139.883 114.574 139.759 114.825 139.71 115.095C139.689 115.712 139.844 116.322 140.156 116.856C140.819 118.014 141.569 119.121 142.4 120.165C142.809 120.713 143.211 121.254 143.591 121.824C144.003 122.368 144.295 122.993 144.446 123.658C144.227 123.022 143.884 122.437 143.437 121.934C143.021 121.4 142.582 120.896 142.136 120.385C141.213 119.375 140.386 118.282 139.666 117.119C139.265 116.493 139.057 115.764 139.067 115.022C139.114 114.62 139.278 114.241 139.538 113.931C139.797 113.621 140.142 113.393 140.529 113.275C141.251 113.082 142.014 113.107 142.721 113.348C143.405 113.553 144.059 113.848 144.665 114.225L144.161 114.802C143.508 114.058 143.06 113.157 142.86 112.187C142.764 111.647 142.862 111.09 143.138 110.616C143.418 110.156 143.831 109.792 144.322 109.571C144.791 109.386 145.294 109.303 145.798 109.325C146.301 109.348 146.795 109.477 147.245 109.703C148.118 110.089 148.918 110.62 149.614 111.273L149.073 111.697C148.836 111.263 148.697 110.782 148.667 110.288C148.637 109.795 148.715 109.3 148.897 108.84C149.106 108.391 149.429 108.003 149.833 107.715C150.246 107.427 150.75 107.3 151.251 107.357C152.167 107.524 153.02 107.941 153.714 108.563C154.428 109.139 155.075 109.793 155.643 110.514Z" fill="#263238"/>
<path d="M146.426 101.18C146.426 101.18 165.247 104.015 160.54 110.824C159.137 112.848 150.973 119.49 149.577 117.882C147.808 115.793 150.702 112.388 152.858 110.532C152.858 110.532 146.317 110.474 145.001 105.907C144.781 105.064 144.797 104.177 145.049 103.343C145.3 102.509 145.777 101.76 146.426 101.18Z" fill="#EB9481"/>
<path d="M160.891 110.227C160.438 111.087 159.859 111.875 159.173 112.565C158.509 113.274 157.799 113.938 157.046 114.552C155.554 115.808 153.955 116.93 152.266 117.906C151.81 118.166 151.317 118.358 150.805 118.476C150.514 118.542 150.211 118.542 149.92 118.476C149.762 118.439 149.609 118.38 149.467 118.3C149.328 118.214 149.205 118.106 149.102 117.979C148.735 117.528 148.54 116.96 148.553 116.379C148.573 115.844 148.687 115.317 148.89 114.822C149.289 113.896 149.843 113.043 150.527 112.302C151.182 111.571 151.891 110.89 152.646 110.263L152.866 110.848C152.127 110.816 151.392 110.713 150.673 110.541C149.951 110.368 149.248 110.123 148.575 109.81C147.904 109.494 147.283 109.081 146.734 108.583C146.186 108.094 145.739 107.503 145.418 106.844C145.813 107.442 146.308 107.968 146.88 108.4C147.451 108.823 148.078 109.165 148.744 109.416C149.402 109.674 150.085 109.865 150.783 109.986C151.472 110.112 152.172 110.171 152.873 110.161H153.743L153.1 110.767C152.398 111.4 151.739 112.079 151.126 112.799C150.52 113.492 150.027 114.276 149.664 115.122C149.476 115.485 149.385 115.89 149.399 116.298C149.413 116.706 149.532 117.104 149.745 117.453C150.125 117.986 151.119 117.621 151.938 117.212C152.778 116.766 153.595 116.279 154.386 115.75C155.19 115.232 155.987 114.698 156.754 114.136C158.328 113.056 159.724 111.737 160.891 110.227Z" fill="#263238"/>
<path d="M122.709 67.507L137.327 77.0055C137.327 77.0055 144.278 65.3735 147.157 57.6871C150.037 50.0007 148.086 46.3328 138.584 53.6612C133.017 57.9511 127.715 62.5749 122.709 67.507Z" fill="#2563EB"/>
<path d="M122.709 67.507L137.327 77.0055C137.327 77.0055 144.278 65.3735 147.157 57.6871C150.037 50.0007 148.086 46.3328 138.584 53.6612C133.017 57.9511 127.715 62.5749 122.709 67.507Z" fill="#2563EB"/>
<path d="M138.146 73.9958C136.197 72.4712 134.231 70.9929 132.248 69.5608C131.261 68.8301 130.289 68.136 129.324 67.4565C128.359 66.777 127.204 66.1048 126.174 65.3961C126.101 65.3449 126.013 65.4545 126.086 65.5057C127.058 66.2363 127.979 67.0181 128.951 67.7415C129.923 68.4648 130.976 69.2028 131.992 69.9334C133.994 71.3655 136.034 72.7488 138.109 74.0835C138.131 74.12 138.197 74.0397 138.146 73.9958Z" fill="#263238"/>
<path opacity="0.1" d="M129.141 71.6871L137.342 77.0282C137.342 77.0282 144.3 65.3889 147.172 57.7025C148.787 53.3917 148.882 50.3302 146.968 49.7969C142.093 54.0639 133.607 66.6237 129.141 71.6871Z" fill="black"/>
<path d="M174.522 265.022C174.522 267.061 174.522 269.077 174.522 271.021C174.522 272.234 177.446 282.923 177.117 286.81C176.927 289.112 141.069 288.344 139.264 287.804C137.459 287.263 141.559 271.781 141.559 271.781L141.252 265.789L139.827 238.485L174.025 237.703C174.025 237.703 174.442 251.775 174.522 265.022Z" fill="#EB9481"/>
<path d="M177.132 286.832C176.949 289.133 141.077 288.366 139.279 287.825C137.481 287.285 141.574 271.802 141.574 271.802L141.34 267.367H174.537C174.537 268.609 174.537 269.844 174.537 271.02C174.537 272.197 177.446 282.945 177.132 286.832Z" fill="#2563EB"/>
<path d="M159.02 289.312C152.142 289.35 145.267 289.026 138.423 288.34L138.643 286.879C143.108 287.551 170.334 288.947 177.168 286.148L177.723 287.5C174.391 288.874 166.745 289.312 159.02 289.312Z" fill="#EBEBEB"/>
<path opacity="0.1" d="M177.131 286.839C177.014 288.3 162.872 288.512 151.894 288.359C154.342 281.564 157.66 272.365 159.517 267.367H174.529C174.529 268.609 174.529 269.844 174.529 271.02C174.529 272.197 177.446 282.945 177.131 286.839Z" fill="black"/>
<path d="M138.496 266.591C138.138 266.416 138.058 219.289 138.818 194.819C139.344 178.014 139.293 102.107 139.118 98.2422H174.018C174.018 98.2422 181.071 116.019 180.084 122.259C180.084 122.259 173.798 192.817 174.281 200.526C175.143 214.277 176.05 267.015 176.722 267.358L138.496 266.591Z" fill="#37474F"/>
<path d="M174.683 258.943C172.453 258.789 163.617 258.504 161.432 258.431C156.973 258.292 142.955 258.431 140.411 258.636C140.323 258.636 140.302 258.796 140.411 258.811C144.796 259.315 149.218 259.454 153.648 259.542C158.077 259.63 173.382 259.25 174.675 259.155C174.778 259.184 174.807 258.95 174.683 258.943Z" fill="#263238"/>
<path d="M144.979 134.966C144.891 123.831 144.723 112.689 144.248 101.568C144.241 101.538 144.224 101.51 144.199 101.491C144.175 101.472 144.144 101.461 144.113 101.461C144.082 101.461 144.051 101.472 144.027 101.491C144.002 101.51 143.985 101.538 143.978 101.568C143.759 121.405 144.087 141.264 144.073 161.109C144.058 180.953 143.817 200.564 143.525 220.328C143.357 231.456 143.064 242.591 143.086 253.718C143.083 253.727 143.082 253.737 143.083 253.746C143.084 253.756 143.088 253.764 143.093 253.772C143.098 253.78 143.106 253.786 143.114 253.791C143.122 253.795 143.132 253.797 143.141 253.797C143.15 253.797 143.16 253.795 143.168 253.791C143.176 253.786 143.184 253.78 143.189 253.772C143.194 253.764 143.198 253.756 143.199 253.746C143.2 253.737 143.199 253.727 143.196 253.718C143.81 243.811 144.036 233.874 144.314 223.952C144.592 214.03 144.731 204.107 144.862 194.185C145.091 174.428 145.13 154.689 144.979 134.966Z" fill="#263238"/>
<path d="M195.104 257.462C198.612 261.4 201.178 266.171 201.053 266.909C200.154 272.528 193.555 274.559 185.018 281.99C176.481 289.421 170.868 295.609 165.598 297.998C159.795 300.636 158.143 289.8 158.823 287.353C159.1 286.352 161.41 277.774 162.521 272.075C162.806 270.614 161.724 267.603 161.724 267.603L149.862 244.033L179.492 227.695C179.492 227.695 194.344 256.607 195.104 257.462Z" fill="#EB9481"/>
<path d="M201.053 266.906C200.154 272.525 193.554 274.556 185.025 281.986C176.495 289.417 170.86 295.613 165.598 297.995C159.794 300.633 158.143 289.797 158.815 287.357C159.1 286.348 161.41 277.771 162.528 272.072C162.605 271.337 162.55 270.595 162.367 269.88C162.258 267.688 179.646 253.805 180.852 253.477C181.582 253.257 187.144 251.204 191.289 250.43C193.321 254.302 194.863 257.181 195.097 257.444C198.612 261.368 201.17 266.168 201.053 266.906Z" fill="#2563EB"/>
<path opacity="0.2" d="M201.053 266.903C200.154 272.522 193.554 274.553 185.025 281.984C176.495 289.415 170.86 295.611 165.598 297.992C163.566 298.92 162.038 298.182 160.957 296.743C159.583 293.484 181.568 272.04 187.371 267.86C193.423 263.477 198.064 262.308 200.323 264.938C200.699 265.536 200.948 266.205 201.053 266.903Z" fill="black"/>
<path d="M161.001 296.859C160.857 296.599 160.815 296.294 160.884 296.004C160.941 295.715 161.024 295.431 161.132 295.157C161.357 294.617 161.621 294.094 161.922 293.593C162.506 292.585 163.164 291.62 163.844 290.671C165.225 288.8 166.702 287.017 168.229 285.264C171.284 281.779 174.53 278.469 177.862 275.254C179.551 273.661 181.246 272.09 182.979 270.563C183.863 269.832 184.755 269.102 185.676 268.371C186.597 267.645 187.561 266.974 188.563 266.362C190.536 265.053 192.715 264.085 195.009 263.498C196.187 263.212 197.422 263.258 198.576 263.629C198.861 263.729 199.132 263.866 199.38 264.038C199.635 264.191 199.867 264.38 200.067 264.601C200.271 264.826 200.452 265.071 200.608 265.332C200.754 265.58 200.871 265.85 201.002 266.106C200.738 265.607 200.376 265.166 199.938 264.809C199.5 264.453 198.994 264.188 198.452 264.031C197.364 263.791 196.23 263.857 195.177 264.221C193.038 264.957 191.02 266.009 189.191 267.341C188.256 268.006 187.342 268.663 186.48 269.394C185.617 270.125 184.747 270.855 183.9 271.659C182.189 273.203 180.506 274.772 178.849 276.364C175.516 279.535 172.249 282.777 169.048 286.089C167.454 287.755 165.876 289.428 164.377 291.167C163.647 292.037 162.916 292.921 162.221 293.849C161.884 294.315 161.579 294.803 161.308 295.31C161.172 295.56 161.059 295.821 160.971 296.092C160.895 296.344 160.905 296.614 161.001 296.859Z" fill="#EBEBEB"/>
<path d="M162.185 191.086C162.324 191.59 191.377 247.77 191.377 247.77L156.586 263.347C156.586 263.347 128.513 205.443 128.513 196.748C128.513 191.159 122.315 162.408 123.871 124.348C124.215 116.092 129.236 102.56 129.836 98.2422H167.593C167.593 98.2422 165.24 115.895 156.528 129.748C156.528 129.748 161.322 187.842 162.185 191.086Z" fill="#37474F"/>
<path d="M187.306 242.02C185.215 242.751 177.029 246.024 175.012 246.828C170.875 248.479 158.143 254.2 155.899 255.377C155.819 255.413 155.863 255.559 155.95 255.53C160.16 254.251 164.253 252.607 168.332 250.941C172.41 249.276 186.224 242.839 187.379 242.225C187.466 242.174 187.423 241.984 187.306 242.02Z" fill="#263238"/>
<path d="M167.432 200.1C166.241 197.63 165.02 195.183 163.843 192.706C163.265 191.541 162.776 190.335 162.382 189.096C162.057 187.793 161.888 186.457 161.877 185.114C161.388 173.906 156.907 136.058 156.498 129.753C156.498 129.705 156.479 129.658 156.444 129.624C156.41 129.59 156.364 129.57 156.315 129.57C156.267 129.57 156.22 129.59 156.186 129.624C156.152 129.658 156.132 129.705 156.132 129.753C155.891 141.042 160.598 177.727 160.854 183.368C160.871 186.043 161.32 188.698 162.184 191.23C163.134 193.707 164.443 196.067 165.627 198.434C168.47 204.096 171.218 209.817 174.354 215.319C174.397 215.4 174.536 215.319 174.5 215.254C172.344 210.132 169.859 205.112 167.432 200.1Z" fill="#263238"/>
<path d="M159.174 262.1C158.336 262.35 157.515 262.655 156.718 263.013C156.213 261.844 155.621 260.712 155.066 259.565L153.202 255.736C151.989 253.228 150.785 250.719 149.592 248.21C147.172 243.14 144.848 238.025 142.502 232.925C141.172 230.003 139.856 227.146 138.438 224.289C138.438 224.289 138.358 224.289 138.372 224.326C140.192 229.63 142.407 234.788 144.702 239.903C146.997 245.018 149.358 250.096 151.843 255.115C152.574 256.576 153.304 257.979 154.035 259.397C154.766 260.814 155.461 262.261 156.294 263.613C156.342 263.686 156.416 263.739 156.502 263.759C156.588 263.78 156.678 263.766 156.754 263.722C157.629 263.283 158.478 262.795 159.298 262.261C159.309 262.242 159.314 262.22 159.313 262.199C159.311 262.177 159.303 262.156 159.29 262.139C159.277 262.121 159.258 262.109 159.238 262.102C159.217 262.095 159.195 262.094 159.174 262.1Z" fill="#263238"/>
<path d="M170.137 128.451C169.121 128.751 168.098 129.029 167.06 129.226C166.093 129.377 165.115 129.453 164.136 129.453C162.153 129.584 160.162 129.511 158.194 129.233C157.213 129.017 156.206 128.946 155.205 129.021C154.167 129.16 153.143 129.409 152.106 129.562C150.037 129.852 147.952 130.018 145.864 130.059C143.488 130.118 141.084 130.22 138.708 130.118C138.643 130.118 138.635 130.22 138.708 130.227C140.821 130.381 142.911 130.702 145.031 130.819C147.179 130.953 149.335 130.912 151.477 130.695C152.537 130.585 153.582 130.403 154.627 130.205C155.628 130.03 156.652 130.03 157.653 130.205C159.652 130.542 161.687 130.614 163.705 130.417C164.789 130.243 165.861 129.999 166.913 129.686C168.035 129.409 169.132 129.043 170.195 128.59C170.214 128.582 170.228 128.568 170.236 128.549C170.243 128.531 170.243 128.51 170.235 128.491C170.228 128.473 170.213 128.458 170.194 128.451C170.176 128.443 170.155 128.443 170.137 128.451Z" fill="#263238"/>
<path d="M148.656 122.064C148.897 119.777 149.658 112.566 149.789 111.229C149.848 110.564 150.125 106.728 149.862 106.691C148.486 106.583 147.105 106.558 145.725 106.618C144.373 106.618 143.021 106.545 141.669 106.472C138.935 106.326 136.209 106.056 133.49 105.698C133.453 105.693 133.415 105.695 133.378 105.705C133.342 105.715 133.308 105.732 133.278 105.755C133.248 105.778 133.223 105.807 133.204 105.84C133.186 105.873 133.173 105.909 133.169 105.946C133.164 105.983 133.167 106.021 133.176 106.058C133.186 106.094 133.203 106.128 133.226 106.158C133.249 106.188 133.278 106.213 133.311 106.232C133.344 106.251 133.38 106.263 133.417 106.268C136.16 106.667 138.914 106.967 141.676 107.166C143.028 107.261 148.254 107.532 149.453 107.393C149.453 107.941 149.088 109.95 149.029 110.403C148.452 110.413 147.877 110.452 147.304 110.52C146.668 110.556 146.025 110.586 145.382 110.6C144.052 110.637 142.714 110.6 141.384 110.6C138.809 110.483 136.243 110.207 133.702 109.775C133.693 109.771 133.684 109.77 133.675 109.771C133.665 109.773 133.656 109.776 133.649 109.781C133.641 109.787 133.634 109.794 133.63 109.802C133.626 109.811 133.623 109.82 133.623 109.829C133.623 109.839 133.626 109.848 133.63 109.857C133.634 109.865 133.641 109.872 133.649 109.877C133.656 109.883 133.665 109.886 133.675 109.887C133.684 109.889 133.693 109.888 133.702 109.884C136.279 110.477 138.904 110.841 141.545 110.973C142.787 111.024 144.022 111.031 145.265 110.973C145.937 110.973 146.61 110.936 147.282 110.863C147.863 110.847 148.443 110.786 149.014 110.681C149.014 110.768 149.014 110.863 148.978 110.951C148.824 112.208 147.984 119.638 147.699 122.086C146.325 122.714 139.659 125.798 138.833 125.367C137.335 124.556 132.204 121.122 130.706 120.252C130.918 118.06 131.203 115.868 131.575 113.676C131.765 112.558 131.977 111.441 132.211 110.33C132.514 109.207 132.724 108.061 132.84 106.903C132.84 106.808 132.701 106.728 132.635 106.816L132.533 106.954C132.524 106.966 132.519 106.98 132.519 106.995C132.519 107.009 132.524 107.023 132.533 107.035C132.103 108.005 131.78 109.02 131.568 110.06C131.276 111.192 131.02 112.332 130.786 113.479C130.328 115.764 129.972 118.07 129.719 120.398C129.709 120.476 129.722 120.556 129.756 120.627C129.789 120.698 129.843 120.758 129.909 120.8C132.16 122.123 138.343 126.105 138.914 126.207C140.003 126.412 148.181 122.868 148.415 122.722C148.649 122.576 148.627 122.349 148.656 122.064Z" fill="#263238"/>
<path d="M159.217 121.677C159.035 119.383 158.486 112.142 158.384 110.812C158.34 110.147 158.172 106.304 158.384 106.282C159.719 106.22 161.057 106.242 162.389 106.348C163.69 106.348 164.999 106.348 166.307 106.348C168.953 106.289 171.591 106.124 174.222 105.851C174.263 105.842 174.305 105.841 174.345 105.85C174.386 105.858 174.424 105.875 174.458 105.899C174.491 105.923 174.52 105.954 174.54 105.99C174.561 106.026 174.574 106.065 174.578 106.107C174.582 106.148 174.578 106.189 174.564 106.229C174.551 106.268 174.53 106.304 174.502 106.334C174.474 106.365 174.44 106.389 174.402 106.405C174.363 106.421 174.322 106.429 174.281 106.428C171.62 106.735 168.953 106.932 166.278 107.035C164.977 107.086 159.934 107.181 158.764 107.035C158.764 107.583 159.056 109.599 159.1 110.052C159.656 110.082 160.21 110.14 160.759 110.228C161.381 110.286 161.995 110.337 162.616 110.374C163.902 110.454 165.189 110.491 166.482 110.469C168.972 110.445 171.458 110.257 173.923 109.906C174.003 109.906 174.01 110.008 173.923 110.023C171.419 110.525 168.875 110.799 166.322 110.841C165.123 110.841 163.924 110.841 162.733 110.732C162.082 110.688 161.432 110.629 160.789 110.556C160.225 110.52 159.666 110.439 159.115 110.315C159.115 110.41 159.115 110.498 159.115 110.586C159.239 111.85 159.846 119.295 160.08 121.75C161.388 122.429 167.791 125.732 168.558 125.33C170.02 124.599 175.063 121.319 176.532 120.53C176.386 118.338 176.167 116.146 175.852 113.954C175.699 112.829 175.516 111.703 175.319 110.586C175.057 109.453 174.881 108.303 174.793 107.144C174.793 107.049 174.939 106.969 174.997 107.071L175.092 107.21C175.101 107.22 175.105 107.233 175.105 107.247C175.105 107.26 175.101 107.273 175.092 107.283C175.478 108.273 175.767 109.299 175.955 110.344C176.203 111.484 176.422 112.631 176.62 113.786C177.014 116.09 177.302 118.406 177.482 120.734C177.489 120.811 177.476 120.888 177.442 120.958C177.409 121.028 177.357 121.087 177.292 121.129C175.1 122.371 169.011 126.141 168.463 126.243C167.403 126.404 159.59 122.59 159.385 122.437C159.181 122.283 159.239 121.962 159.217 121.677Z" fill="#263238"/>
<path d="M155.548 115.973C155.366 112.568 155.154 109.163 154.818 105.744C154.613 103.786 154.401 101.835 154.13 99.8985C154.13 99.8255 154.014 99.8255 154.021 99.8985C154.313 103.325 154.598 106.752 154.854 110.179C155.11 113.606 155.241 116.981 155.402 120.408C155.497 122.366 155.578 124.324 155.673 126.253C155.673 126.326 155.782 126.326 155.79 126.253C155.841 122.812 155.731 119.37 155.548 115.973Z" fill="#263238"/>
<path d="M156.681 251.731C152.383 242.481 147.998 233.304 143.503 224.105L136.772 210.354C134.659 206.022 132.562 201.638 131.363 196.954C130.121 192.095 129.682 187.047 129.134 182.071C128.586 177.095 128.059 171.995 127.577 166.946C126.649 157.2 125.713 147.431 125.501 137.633C125.289 127.835 125.699 118.088 127.745 108.546C128.001 107.369 128.279 106.2 128.578 105.031C126.143 114.458 124.916 124.156 124.924 133.892C124.971 143.738 125.513 153.575 126.546 163.366C127.034 168.461 127.55 173.554 128.096 178.644C128.629 183.576 129.068 188.559 129.93 193.447C130.824 198.144 132.326 202.705 134.396 207.015C136.53 211.604 138.825 216.126 141.055 220.671C145.591 229.95 150.179 239.205 154.817 248.436C155.387 249.561 156.009 250.664 156.586 251.789C156.615 251.87 156.718 251.804 156.681 251.731Z" fill="#263238"/>
<path d="M155.745 50.29C155.424 51.0718 154.444 54.7762 150.724 54.2721C147.26 53.8045 146.953 48.0616 146.953 48.0616V47.5574L146.536 40.4993L155.38 36.6927L156.644 36.2031C156.644 36.2031 156.644 38.1393 156.579 40.587C156.579 40.6966 156.579 40.8062 156.579 40.9304C156.579 41.0546 156.579 41.1935 156.579 41.3177C156.579 41.683 156.579 42.0483 156.579 42.4136C156.579 42.6986 156.579 42.9689 156.579 43.2612L156.535 44.1307C156.412 46.1994 156.149 48.2573 155.745 50.29Z" fill="#EB9481"/>
<path d="M156.579 40.5578C155.573 42.3546 154.189 43.9113 152.522 45.12C150.855 46.3286 148.944 47.1603 146.924 47.5574L146.536 40.4993L155.38 36.6927L156.644 36.2031C156.644 36.2031 156.63 38.1393 156.579 40.5578Z" fill="#263238"/>
<path d="M139.958 29.4117C137.137 41.4893 143.993 44.6603 146.661 45.1572C149.051 45.5956 157.149 47.2761 161.213 35.5564C165.277 23.8368 160.54 18.7004 155.198 17.1514C149.855 15.6024 142.816 17.3341 139.958 29.4117Z" fill="#EB9481"/>
<path d="M129.835 98.2412C129.835 98.2412 163.61 98.9719 174.003 98.2412C174.003 98.2412 169.684 65.6251 160.116 52.3857C155.285 45.7003 144.98 45.8099 140.945 55.5859C135.416 69.2656 131.682 83.6032 129.835 98.2412Z" fill="#2563EB"/>
<path d="M145.002 16.7287C145.002 16.7287 152.588 12.3448 159.481 16.451C166.373 20.5573 169.815 30.9398 168.814 39.7295C167.813 48.5192 175.063 54.1671 175.962 60.6626C176.861 67.1581 172.637 70.2487 171.263 73.6901C169.698 77.6283 176.54 91.401 159.853 94.9373C138.979 99.3212 130.727 86.6372 132.664 75.9405C133.607 70.7017 136.472 66.9462 136.319 62.723C136.165 58.4999 133.139 55.1973 134.594 49.8197C136.048 44.4422 138.124 45.129 138.818 36.7119C139.513 28.2948 137.612 18.2922 145.002 16.7287Z" fill="#263238"/>
<path d="M158.026 16.2807C162.517 19.0534 166.051 23.1326 168.156 27.9711C169.211 30.3908 169.858 32.9683 170.071 35.5991C170.356 39.0185 169.889 42.2334 171.226 45.5286C173.368 50.8112 177.534 55.1805 177.453 61.106C177.414 63.8723 176.591 66.5707 175.078 68.8874C173.324 71.5982 170.78 73.7609 169.318 76.6615C169.26 76.7785 169.077 76.6616 169.128 76.5593C170.342 73.9874 172.359 72 174.018 69.6912C176.025 66.9842 177.056 63.6773 176.942 60.3096C176.679 54.6836 172.556 50.4239 170.59 45.324C169.814 43.079 169.488 40.7028 169.633 38.3317C169.693 35.4613 169.27 32.6013 168.383 29.8708C166.441 24.3746 162.798 19.6399 157.982 16.3538C157.931 16.3173 157.982 16.2515 158.026 16.2807Z" fill="#263238"/>
<path d="M132.708 74.4288C133.191 71.9008 134.463 69.5919 134.945 67.0712C135.515 64.039 134.696 61.0433 134.061 58.0842C133.162 53.8684 133.176 49.8717 134.974 45.8458C136.136 43.2447 137.562 40.8044 138.409 38.079C139.338 35.1245 139.831 32.0501 139.871 28.9532C139.871 28.8802 139.981 28.8802 139.981 28.9532C140.148 33.4375 139.272 37.8994 137.423 41.988C136.326 44.3918 134.952 46.6495 134.338 49.236C133.607 52.3413 133.973 55.315 134.572 58.4057C135.055 60.4548 135.353 62.5431 135.464 64.6454C135.391 66.7762 134.931 68.8758 134.104 70.8413C132.196 76.0212 132.337 81.734 134.499 86.8133C134.536 86.901 134.375 86.9741 134.331 86.8791C132.508 82.9987 131.941 78.6466 132.708 74.4288Z" fill="#263238"/>
<path d="M176.503 59.8893C176.225 55.2497 172.929 52.159 170.89 48.1989C169.355 45.1886 168.281 41.9592 168.697 38.5982C168.697 38.547 168.8 38.5543 168.8 38.5982C168.639 43.4497 170.758 47.8043 173.521 51.8156C175.356 54.4825 176.883 57.0471 176.956 60.2984C177.029 63.5498 175.809 66.1436 174.033 68.847C172.776 70.754 171.54 72.5003 171.036 74.7507C170.648 76.9876 170.584 79.2687 170.846 81.5238C170.846 81.6407 170.663 81.6407 170.649 81.5238C170.276 78.0532 170.166 74.6776 171.855 71.4701C173.967 67.5319 176.788 64.602 176.503 59.8893Z" fill="#263238"/>
<path d="M131.846 71.1606C132.562 69.5685 133.426 68.047 134.426 66.616C136.151 63.971 136.406 61.8449 135.756 58.7615C135.756 58.6885 135.851 58.6592 135.873 58.7615C136.779 61.2969 137.02 63.4158 135.551 65.7977C133.497 69.1148 131.487 72.147 131.122 76.0706C130.486 83.0337 134.535 89.4415 140.967 92.839C141.055 92.8828 140.967 93.0144 140.887 92.9705C135.493 90.4352 131.656 85.7517 130.771 80.1549C130.288 77.1152 130.66 74.0011 131.846 71.1606Z" fill="#263238"/>
</svg>
