<svg width="16" height="16" viewBox="0 0 16 16" fill="none" xmlns="http://www.w3.org/2000/svg">
<path fill-rule="evenodd" clip-rule="evenodd" d="M15 8.00063C15 7.86802 14.9473 7.74085 14.8536 7.64708C14.7598 7.55331 14.6326 7.50063 14.5 7.50063H2.70701L5.85401 4.35463C5.9005 4.30814 5.93737 4.25295 5.96253 4.19222C5.98769 4.13148 6.00064 4.06638 6.00064 4.00063C6.00064 3.93489 5.98769 3.86979 5.96253 3.80905C5.93737 3.74831 5.9005 3.69312 5.85401 3.64663C5.80752 3.60014 5.75233 3.56327 5.69159 3.53811C5.63085 3.51295 5.56575 3.5 5.50001 3.5C5.43426 3.5 5.36916 3.51295 5.30842 3.53811C5.24769 3.56327 5.1925 3.60014 5.14601 3.64663L1.14601 7.64663C1.09945 7.69308 1.0625 7.74825 1.0373 7.809C1.01209 7.86974 0.999115 7.93486 0.999115 8.00063C0.999115 8.0664 1.01209 8.13152 1.0373 8.19226C1.0625 8.25301 1.09945 8.30819 1.14601 8.35463L5.14601 12.3546C5.1925 12.4011 5.24769 12.438 5.30842 12.4632C5.36916 12.4883 5.43426 12.5013 5.50001 12.5013C5.56575 12.5013 5.63085 12.4883 5.69159 12.4632C5.75233 12.438 5.80752 12.4011 5.85401 12.3546C5.9005 12.3081 5.93737 12.253 5.96253 12.1922C5.98769 12.1315 6.00064 12.0664 6.00064 12.0006C6.00064 11.9349 5.98769 11.8698 5.96253 11.809C5.93737 11.7483 5.9005 11.6931 5.85401 11.6466L2.70701 8.50063H14.5C14.6326 8.50063 14.7598 8.44795 14.8536 8.35419C14.9473 8.26042 15 8.13324 15 8.00063Z" fill="#212529"/>
</svg>
