<svg width="30" height="23" viewBox="0 0 30 23" fill="none" xmlns="http://www.w3.org/2000/svg">
<g clip-path="url(#clip0_2281_12644)">
<path d="M5.45589 22.8841V21.3618C5.45589 20.7782 5.09572 20.3977 4.47837 20.3977C4.16975 20.3977 3.83536 20.4991 3.60384 20.829C3.42387 20.5499 3.16669 20.3977 2.78086 20.3977C2.52357 20.3977 2.2665 20.4737 2.06064 20.7528V20.4484H1.52051V22.8841H2.06064V21.5394C2.06064 21.1081 2.29216 20.9051 2.65233 20.9051C3.01227 20.9051 3.19247 21.1334 3.19247 21.5394V22.8841H3.73261V21.5394C3.73261 21.1081 3.98967 20.9051 4.32406 20.9051C4.68423 20.9051 4.8642 21.1334 4.8642 21.5394V22.8841H5.45589ZM13.4549 20.4484H12.5805V19.7126H12.0404V20.4484H11.5517V20.9304H12.0403V22.0469C12.0403 22.6051 12.2718 22.9348 12.8891 22.9348C13.1207 22.9348 13.3777 22.8588 13.5579 22.7573L13.4035 22.3005C13.2492 22.402 13.0692 22.4275 12.9406 22.4275C12.6834 22.4275 12.5805 22.2752 12.5805 22.0214V20.9304H13.4549V20.4484ZM18.0333 20.3976C17.7247 20.3976 17.519 20.5499 17.3903 20.7528V20.4484H16.8502V22.8841H17.3903V21.514C17.3903 21.1081 17.5703 20.8797 17.9047 20.8797C18.0075 20.8797 18.1362 20.9052 18.2391 20.9305L18.3934 20.4231C18.2905 20.3977 18.1362 20.3977 18.0333 20.3977M11.1144 20.6515C10.8571 20.4738 10.4971 20.3978 10.1112 20.3978C9.49402 20.3978 9.08253 20.7022 9.08253 21.1843C9.08253 21.5903 9.39115 21.8186 9.93128 21.8948L10.1885 21.9202C10.4714 21.9708 10.6257 22.047 10.6257 22.1739C10.6257 22.3514 10.42 22.4783 10.0598 22.4783C9.69964 22.4783 9.4168 22.3514 9.23672 22.2246L8.97954 22.6305C9.2625 22.8335 9.64832 22.935 10.034 22.935C10.7543 22.935 11.1659 22.6052 11.1659 22.1484C11.1659 21.7171 10.8315 21.4887 10.317 21.4127L10.0598 21.3872C9.82829 21.3618 9.64832 21.3112 9.64832 21.159C9.64832 20.9813 9.82829 20.8799 10.1112 20.8799C10.42 20.8799 10.7286 21.0067 10.8829 21.0828L11.1144 20.6515ZM25.4667 20.3978C25.158 20.3978 24.9522 20.55 24.8236 20.753V20.4485H24.2834V22.8842H24.8236V21.5142C24.8236 21.1082 25.0037 20.8799 25.3379 20.8799C25.4409 20.8799 25.5696 20.9053 25.6724 20.9306L25.8267 20.4232C25.7239 20.3978 25.5696 20.3978 25.4667 20.3978ZM18.5735 21.6664C18.5735 22.4021 19.0878 22.935 19.8853 22.935C20.2453 22.935 20.5025 22.8589 20.7597 22.6559L20.5025 22.2246C20.2967 22.3768 20.091 22.4529 19.8595 22.4529C19.4222 22.4529 19.1136 22.1484 19.1136 21.6664C19.1136 21.2097 19.4222 20.9052 19.8595 20.8799C20.091 20.8799 20.2967 20.9559 20.5025 21.1082L20.7597 20.6769C20.5025 20.4738 20.2453 20.3978 19.8853 20.3978C19.0878 20.3978 18.5735 20.9306 18.5735 21.6664ZM23.5633 21.6664V20.4485H23.0232V20.753C22.8431 20.5247 22.5859 20.3978 22.2515 20.3978C21.5571 20.3978 21.017 20.9306 21.017 21.6664C21.017 22.4021 21.5571 22.935 22.2515 22.935C22.6116 22.935 22.8689 22.8082 23.0232 22.5798V22.8842H23.5633V21.6664ZM21.5828 21.6664C21.5828 21.235 21.8657 20.8799 22.3286 20.8799C22.7659 20.8799 23.0746 21.2097 23.0746 21.6664C23.0746 22.0977 22.7659 22.4529 22.3286 22.4529C21.8657 22.4275 21.5828 22.0977 21.5828 21.6664ZM15.1269 20.3978C14.4067 20.3978 13.8922 20.9052 13.8922 21.6664C13.8922 22.4276 14.4066 22.935 15.1526 22.935C15.5126 22.935 15.8728 22.8335 16.1557 22.6052L15.8984 22.2246C15.6927 22.3768 15.4355 22.4783 15.1783 22.4783C14.8439 22.4783 14.5096 22.3261 14.4323 21.8946H16.2586V21.6918C16.2844 20.9052 15.8215 20.3978 15.1269 20.3978ZM15.1268 20.8544C15.4611 20.8544 15.6927 21.0575 15.744 21.4381H14.458C14.5094 21.1082 14.741 20.8544 15.1268 20.8544ZM28.5273 21.6664V19.4844H27.9872V20.753C27.8071 20.5247 27.5499 20.3978 27.2155 20.3978C26.5211 20.3978 25.9809 20.9306 25.9809 21.6664C25.9809 22.4021 26.5211 22.935 27.2155 22.935C27.5757 22.935 27.8329 22.8082 27.9872 22.5798V22.8842H28.5273V21.6664ZM26.5469 21.6664C26.5469 21.235 26.8297 20.8799 27.2927 20.8799C27.73 20.8799 28.0386 21.2097 28.0386 21.6664C28.0386 22.0977 27.73 22.4529 27.2927 22.4529C26.8297 22.4275 26.5469 22.0977 26.5469 21.6664ZM8.49072 21.6664V20.4485H7.95059V20.753C7.7705 20.5247 7.51332 20.3978 7.17893 20.3978C6.48449 20.3978 5.94435 20.9306 5.94435 21.6664C5.94435 22.4021 6.48449 22.935 7.17893 22.935C7.5391 22.935 7.79628 22.8082 7.95059 22.5798V22.8842H8.49072V21.6664ZM6.48449 21.6664C6.48449 21.235 6.76744 20.8799 7.23037 20.8799C7.66763 20.8799 7.97636 21.2097 7.97636 21.6664C7.97636 22.0977 7.66763 22.4529 7.23037 22.4529C6.76744 22.4275 6.48449 22.0977 6.48449 21.6664Z" fill="black"/>
<path d="M10.9326 1.95312H19.0347V16.3138H10.9326V1.95312Z" fill="#FF5F00"/>
<path d="M11.4517 9.134C11.4517 6.21624 12.8406 3.62822 14.9754 1.95361C13.4065 0.735769 11.426 0 9.2655 0C4.14686 0 0.00585938 4.08487 0.00585938 9.134C0.00585938 14.1831 4.14686 18.268 9.26538 18.268C11.4259 18.268 13.4064 17.5322 14.9754 16.3143C12.8406 14.6651 11.4517 12.0518 11.4517 9.134Z" fill="#EB001B"/>
<path d="M29.9695 9.134C29.9695 14.183 25.8285 18.268 20.71 18.268C18.5494 18.268 16.569 17.5322 15 16.3143C17.1605 14.6398 18.5238 12.0518 18.5238 9.134C18.5238 6.21624 17.1348 3.62822 15 1.95361C16.5689 0.735769 18.5494 0 20.71 0C25.8285 0 29.9695 4.1103 29.9695 9.134Z" fill="#F79E1B"/>
</g>
<defs>
<clipPath id="clip0_2281_12644">
<rect width="30" height="23" fill="white"/>
</clipPath>
</defs>
</svg>
